<?xml version="1.0" encoding="UTF-8"?>
<svg id="Warstwa_1" data-name="Warstwa 1" xmlns="http://www.w3.org/2000/svg" viewBox="0 0 301 114.5">
  <defs>
    <style>
      .cls-1 {
        fill: #fff;
      }

      .cls-1, .cls-2 {
        stroke-width: 0px;
      }

      .cls-2 {
        fill: #e62846;
      }
    </style>
  </defs>
  <path class="cls-1" d="m14,40c91.33-10.33,182.67-20.67,274-31l7.81,62.91L19.53,104.25l-5.53-64.25Z"/>
  <g>
    <polygon class="cls-2" points="255.96 50.65 268.1 49.18 262.03 31.18 255.96 50.65"/>
    <path class="cls-2" d="m301,.57L0,36.98v77.36c100.33-11.99,200.67-23.99,301-35.98,0-25.93,0-51.86,0-77.79ZM49.87,94.53l-30.34,3.67v-51.03s11.84-1.43,11.84-1.43v39.8l18.5-2.24v11.23Zm37.74-4.57l-32.56,3.94v-51.03s32.19-3.89,32.19-3.89v11.23l-20.35,2.46v8.46l18.5-2.24v11.08l-18.5,2.24v9.04l20.72-2.51v11.23Zm61.05-7.38l-13.47,1.63-8.44-29.09-8.44,31.13-13.47,1.63-14.28-49.3,12.43-1.5,8.95,34.64,9.99-36.93,9.62-1.16,9.99,34.51,8.95-36.8,12.43-1.5-14.28,52.76Zm31.3-3.79l-11.84,1.43V29.2s11.84-1.43,11.84-1.43v51.03Zm33.6-14.42c5.25-.64,9.77-3.51,11.99-7.72l10.21,4.6c-4.44,7.75-12.73,13.35-22.2,14.49-15.61,1.89-26.93-8.26-26.93-23.28,0-15.02,11.32-27.9,26.93-29.79,9.4-1.14,17.69,2.45,22.2,9.12l-10.21,7.07c-2.29-3.66-6.73-5.46-11.99-4.82-9.18,1.11-15.1,7.88-15.1,16.99s5.92,14.45,15.1,13.34Zm60.68,3.01l-2.59-7.71-19.24,2.33-2.59,8.33-12.95,1.57,17.61-53.16,15.1-1.83,17.61,48.9-12.95,1.57Z"/>
  </g>
</svg>