<?xml version="1.0" encoding="UTF-8"?>
<svg id="Warstwa_1" data-name="Warstwa 1" xmlns="http://www.w3.org/2000/svg" viewBox="0 0 1920 712.51">
  <defs>
    <style>
      .cls-1 {
        fill: #ffffff;
        stroke-width: 0px;
      }
    </style>
  </defs>
  <polygon class="cls-1" points="356.36 219.58 335.75 287.65 376.96 282.59 356.36 219.58"/>
  <path class="cls-1" d="m332.94,475.29l-30.15,3.7v45.91l30.15-3.7c11.05-1.36,20.1-12.42,20.1-25.42s-9.05-21.84-20.1-20.49Z"/>
  <path class="cls-1" d="m1139.12,374.26c-28.65,3.52-51.25,27.46-51.25,59.34s22.61,50.27,51.25,46.75c28.64-3.52,51.25-27.46,51.25-59.34s-22.61-50.27-51.25-46.75Z"/>
  <ellipse class="cls-1" cx="143.19" cy="549.59" rx="55.52" ry="48.97" transform="translate(-388.03 348.71) rotate(-54.68)"/>
  <path class="cls-1" d="m1236.44,264.78V0L0,151.82v560.69l1920-235.75V180.85l-683.56,83.93Zm-195.25-29.05l67.33-115.89-66.08,8.11v-39.28l118.09-14.5v31.62l-67.34,115.89,68.59-8.42v39.28l-120.6,14.81v-31.62Zm-93.25-30.38c-26.13-4.19-51.76-13.79-51.76-47.97s28.64-57.84,59.04-61.57c28.9-3.55,51.51,7.7,64.32,32.4l-33.92,24.31c-6.03-12.01-14.32-18.9-30.4-16.93-12.56,1.54-18.84,8.69-18.84,15.83,0,8.16,4.27,13.25,31.66,18.3,26.63,4.89,56.53,10.66,56.53,48.4,0,34.43-27.13,58.17-65.33,62.86-36.93,4.53-60.55-10.42-70.35-35.49l34.67-24.66c6.28,14.02,17.08,22.64,36.93,20.2,19.09-2.34,23.87-10.58,23.87-17.46,0-10.97-10.05-14.07-36.43-18.23Zm-220.14-78.04l40.2-4.94v117.31c0,13.52,6.28,24.22,27.64,21.6,21.36-2.62,27.64-14.87,27.64-28.39v-117.31l40.2-4.94v120.89c0,38.26-29.15,64.79-67.84,69.54-38.69,4.75-67.84-14.62-67.84-52.88v-120.89Zm-137.21,16.85l109.29-13.42v39.28l-69.09,8.48v29.58l62.81-7.71v38.77l-62.81,7.71v31.62l70.35-8.64v39.28l-110.55,13.57v-178.52Zm-153.54,18.85l130.65-16.04v39.28l-45.22,5.55v139.25l-40.2,4.94v-139.25l-45.23,5.55v-39.28Zm-106.32,13.05l51.25-6.29,59.79,171.18-43.96,5.4-8.8-26.98-65.33,8.02-8.79,29.13-43.97,5.4,59.8-185.87Zm-256.07,31.44l40.2-4.94,47.74,73.45,47.73-85.18,40.2-4.94v178.52l-40.2,4.94v-103.8l-45.47,81.33-4.53.56-45.48-70.16v103.8l-40.2,4.94v-178.52Zm68.54,434.93c-50.5,6.2-91.45-29.07-91.45-81.61s40.95-97.86,91.45-104.06c50.5-6.2,91.45,29.07,91.45,81.6s-40.95,97.87-91.45,104.07Zm211.85-29.58l-33.17-54.59-19.09,2.34v58.66l-40.2,4.94v-178.52l70.35-8.64c33.42-4.1,60.3,19.88,60.3,53.8,0,21.93-13.07,43.43-32.41,55.75l37.44,60.95-43.22,5.31Zm181.69-22.31l-120.6,14.81v-31.62l67.33-115.89-66.08,8.11v-39.28l118.09-14.5v31.62l-67.34,115.89,68.59-8.42v39.28Zm137.21-16.85l-110.55,13.57v-178.52l109.29-13.42v39.28l-69.09,8.48v29.58l62.81-7.71v38.77l-62.81,7.71v31.62l70.35-8.64v39.28Zm110.59-49.79c17.84-2.19,33.17-12.23,40.7-26.93l34.67,16.15c-15.07,27.1-43.21,46.62-75.37,50.57-53.02,6.51-91.45-29.07-91.45-81.61s38.44-97.55,91.45-104.06c31.91-3.92,60.05,8.7,75.37,32.06l-34.67,24.66c-7.79-12.81-22.86-19.13-40.7-16.93-31.15,3.83-51.25,27.46-51.25,59.34s20.1,50.58,51.25,46.75Zm235.21,7.34l-40.2,4.94v-70.9l-55.27,6.79v70.9l-40.2,4.94v-178.52l40.2-4.94v68.35l55.27-6.79v-68.35l40.2-4.94v178.52Zm119.38-11.09c-50.5,6.2-91.45-29.07-91.45-81.61s40.95-97.86,91.45-104.06c50.5-6.2,91.45,29.07,91.45,81.6s-40.95,97.86-91.45,104.07Zm296.52-39.98l-45.73,5.61-28.64-101.81-28.65,108.84-45.73,5.61-48.49-172.57,42.21-5.18,30.4,121.23,33.92-129.13,32.67-4.01,33.92,120.8,30.4-128.7,42.21-5.18-48.49,184.48Zm127.95-12.14c-36.93,4.53-60.55-10.42-70.35-35.49l34.67-24.66c6.28,14.02,17.08,22.64,36.93,20.2,19.09-2.34,23.87-10.58,23.87-17.46,0-10.97-10.05-14.07-36.43-18.23-26.13-4.18-51.76-13.79-51.76-47.97s28.65-57.84,59.04-61.57c28.9-3.55,51.51,7.7,64.32,32.4l-33.92,24.31c-6.03-12.01-14.32-18.9-30.4-16.93-12.56,1.54-18.84,8.69-18.84,15.83,0,8.16,4.27,13.25,31.66,18.3,26.63,4.89,56.53,10.66,56.53,48.4,0,34.43-27.13,58.17-65.33,62.86Zm185.96-26.41l-56.28-75.72v82.63l-40.2,4.94v-178.52l40.2-4.94v77.53l53.77-84.13,45.73-5.61-59.29,94.25,61.81,83.97-45.73,5.61Zm106.32-13.05l-40.2,4.94v-178.52l40.2-4.94v178.52Z"/>
</svg>