<?xml version="1.0" encoding="UTF-8"?><svg id="a" xmlns="http://www.w3.org/2000/svg" viewBox="0 0 921.23 1204.48"><defs><style>.b{fill:none;stroke:#fff;stroke-miterlimit:10;stroke-width:9px;}.c{fill:#fff;stroke-width:0px;}</style></defs><polygon class="b" points="609.05 153.33 562.05 164.33 537.05 220.33 417.05 256.33 383.84 212.83 334.05 231.33 258.05 194.33 258.05 166.13 296.6 159.12 352.48 80.63 355.14 4.8 593.26 20.76 603.9 104.57 620.9 150.33 609.05 153.33"/><polygon class="b" points="109.03 407.89 173.05 397.33 268.05 350.33 327.05 335.33 335.37 272.33 315.05 244.33 334.05 231.33 258.05 194.33 258.05 166.13 194.17 177.74 110.36 243.01 78.43 328.07 109.03 407.89"/><polygon class="b" points="110.36 507.66 35.86 508.99 6.59 470.41 109.03 407.89 173.05 397.33 268.05 350.33 327.05 335.33 366.05 343.33 335.37 422.16 374.05 458.33 381.05 505.33 405.05 513.33 446.05 556.33 461.32 593.72 504.05 571.33 544.95 601.8 489.05 613.33 516.05 685.33 499.05 716.33 427.05 731.33 380.05 662.33 320.05 638.33 305.05 671.33 270.05 675.33 252.05 702.33 218.05 712.33 192.05 645.33 129.05 619.33 117.05 547.33 110.36 507.66"/><polygon class="b" points="552.05 612.33 603.05 570.33 581.31 533.33 620.9 475.39 586.47 434.75 631.05 391.33 576.05 348.33 533.05 396.33 489.35 407.89 474.05 376.33 429.05 397.33 370.05 397.33 350.33 383.7 335.37 422.16 374.05 458.33 381.05 505.33 405.05 513.33 446.05 556.33 461.32 593.72 504.05 571.33 544.95 601.8 552.05 612.33"/><polygon class="b" points="537.05 220.33 529.05 237.33 563.05 259.33 549.05 326.33 563.05 362.84 533.05 396.33 489.35 407.89 474.05 376.33 429.05 397.33 370.05 397.33 350.33 383.7 366.05 343.33 327.05 335.33 335.37 272.33 315.05 244.33 334.05 231.33 383.84 212.83 417.05 256.33 537.05 220.33"/><polygon class="b" points="603.05 570.33 631.05 574.48 653.05 620.33 744.35 644.73 864.59 599.45 848.29 473.3 742.42 473.3 668.05 455.33 676.12 407.89 631.05 391.33 586.47 434.75 620.9 475.39 581.31 533.33 603.05 570.33"/><polygon class="b" points="620.9 150.33 638.49 197.7 689.04 181.73 799.46 250.91 866.63 232.4 916.05 435.82 848.29 473.3 742.42 473.3 668.05 455.33 676.12 407.89 631.05 391.33 576.05 348.33 563.05 362.84 549.05 326.33 563.05 259.33 529.05 237.33 562.05 164.33 620.9 150.33"/><polygon class="b" points="132.97 1073.04 190.18 1046.44 285.96 1103.64 335.37 1050.68 335.37 981.53 383.05 905.33 303.05 835.33 190.05 845 176.87 966.62 117.01 1021.16 132.97 1073.04"/><polygon class="b" points="342.88 1198.81 438.95 1158.18 597.62 1194.76 646.47 1123.59 723.63 947.99 703.68 928.04 607.05 908.33 577.03 835.33 533.26 808.3 483.21 844.66 439.47 779.78 383.05 812.33 409.05 909.33 383.05 905.33 335.37 981.53 335.37 1050.68 285.96 1103.64 342.88 1198.81"/><polygon class="b" points="552.05 612.33 603.05 570.33 631.05 574.48 653.05 620.33 744.35 644.73 762.69 698.89 730.09 738.47 772.85 832.26 703.68 928.04 607.05 908.33 577.03 835.33 533.26 808.3 483.21 844.66 439.47 779.78 427.05 731.33 499.05 716.33 516.05 685.33 489.05 613.33 544.95 601.8 552.05 612.33"/><polygon class="b" points="218.05 712.33 240.05 771.33 250.05 796.33 194.05 807.33 190.05 845 303.05 835.33 383.05 905.33 409.05 909.33 383.05 812.33 439.47 779.78 427.05 731.33 380.05 662.33 320.05 638.33 305.05 671.33 270.05 675.33 252.05 702.33 218.05 712.33"/><path class="c" d="m380.27,135.8c-.33-.58-.81-1-1.43-1.25-.62-.25-1.35-.33-2.19-.22-1.45.18-2.62.81-3.49,1.88-.88,1.08-1.31,2.42-1.31,4.04,0,1.72.46,3.01,1.38,3.87.92.86,2.18,1.18,3.79.99,1.1-.14,2.04-.53,2.8-1.2.76-.66,1.32-1.55,1.67-2.66l-5.7.7v-3.36l9.77-1.2v4.24c-.33,1.18-.9,2.3-1.69,3.38s-1.81,1.99-3.03,2.74c-1.22.75-2.61,1.23-4.15,1.42-1.82.22-3.44.02-4.87-.61-1.43-.63-2.54-1.62-3.33-2.96-.8-1.34-1.2-2.94-1.2-4.78s.4-3.54,1.2-5.09c.8-1.55,1.9-2.81,3.32-3.79,1.42-.98,3.04-1.59,4.86-1.81,2.21-.27,4.07.04,5.58.94,1.51.9,2.52,2.28,3.01,4.14l-4.96.61Z"/><path class="c" d="m397.45,146.48l-3.83-6.59-1.08.13v7.06l-4.49.55v-18.71l7.54-.93c1.45-.18,2.69-.07,3.71.32,1.02.39,1.79,1,2.3,1.84.51.83.76,1.8.76,2.9,0,1.24-.35,2.4-1.04,3.46-.69,1.06-1.71,1.88-3.06,2.46l4.25,6.89-5.07.62Zm-4.91-9.69l2.78-.34c.82-.1,1.44-.38,1.85-.84.41-.46.62-1.06.62-1.81s-.21-1.24-.62-1.6c-.41-.36-1.03-.49-1.85-.39l-2.78.34v4.64Z"/><path class="c" d="m409.58,126.28v11.2c0,1.12.27,1.95.81,2.49.54.54,1.34.74,2.39.61,1.05-.13,1.86-.53,2.42-1.2.56-.67.84-1.57.84-2.69v-11.2l4.49-.55v11.17c0,1.67-.35,3.13-1.05,4.37-.7,1.24-1.64,2.23-2.82,2.96s-2.5,1.19-3.95,1.36c-1.45.18-2.75.05-3.9-.39-1.15-.44-2.05-1.2-2.72-2.28-.67-1.08-1-2.46-1-4.13v-11.17l4.49-.55Z"/><path class="c" d="m435.68,124.25c1.45.6,2.58,1.56,3.37,2.88.8,1.31,1.19,2.9,1.19,4.74s-.4,3.51-1.19,5.02c-.8,1.52-1.93,2.76-3.39,3.72-1.46.96-3.16,1.56-5.08,1.8l-6.91.85v-18.71l6.91-.85c1.94-.24,3.64-.06,5.09.55Zm-1.42,12.36c.95-1.06,1.42-2.45,1.42-4.17s-.47-3.01-1.42-3.85c-.95-.84-2.27-1.16-3.96-.95l-2.13.26v10.88l2.13-.26c1.7-.21,3.02-.84,3.96-1.9Z"/><path class="c" d="m447.55,136.6l7.93-.97v3.73l-13.02,1.6v-3.47l7.88-12.48-7.88.97v-3.73l13.02-1.6v3.46l-7.93,12.49Z"/><path class="c" d="m462.91,119.73v18.71l-4.49.55v-18.71l4.49-.55Z"/><path class="c" d="m483.68,138.72v2.56c-.84.37-1.71.61-2.6.72-1.14.14-2.07-.01-2.78-.46-.72-.44-1.08-1.17-1.08-2.19,0-.55.11-1.07.34-1.55.23-.48.61-.97,1.13-1.46l-1.05-3.02-6.88.84-1.1,3.44-4.7.58,6.67-19.53,5.2-.64,6.67,17.89-1.23.74c-.65.38-1.1.72-1.35,1.02-.25.3-.38.6-.38.9s.1.52.3.66c.2.14.49.18.88.13.56-.07,1.22-.28,1.97-.64Zm-7.19-8.77l-2.29-6.57-2.26,7.13,4.54-.56Z"/><path class="c" d="m497.52,116.66c1.45.6,2.58,1.56,3.37,2.88.8,1.31,1.19,2.9,1.19,4.74s-.4,3.51-1.19,5.02c-.8,1.52-1.93,2.76-3.39,3.72s-3.16,1.56-5.08,1.8l-6.91.85v-18.71l6.91-.85c1.94-.24,3.64-.06,5.09.55Zm-1.42,12.35c.94-1.06,1.42-2.45,1.42-4.17s-.47-3.01-1.42-3.85c-.95-.84-2.27-1.16-3.97-.95l-2.13.26v10.88l2.13-.26c1.7-.21,3.02-.84,3.97-1.9Z"/><path class="c" d="m509.39,129.01l7.93-.97v3.73l-13.02,1.6v-3.47l7.88-12.48-7.88.97v-3.73l13.02-1.6v3.46l-7.93,12.49Z"/><path class="c" d="m530.95,130.09l-6.2-7.5v8.26l-4.49.55v-18.71l4.49-.55v8.21l6.15-8.96,5.28-.65-7.14,10.05,7.41,8.63-5.49.67Z"/><path class="c" d="m543.05,109.89v18.71l-4.49.55v-18.71l4.49-.55Z"/><polygon class="b" points="176.05 578.49 229.84 536.33 299.13 542.87 324.33 565.4 293.8 614.83 232.28 614.83 226.93 584.3 176.05 578.49"/><path class="c" d="m127.81,309.34c.79-1.54,1.89-2.81,3.3-3.79,1.41-.98,3.01-1.58,4.79-1.8,2.19-.27,4.06.09,5.62,1.07,1.56.98,2.6,2.45,3.12,4.41l-4.94.61c-.37-.74-.89-1.27-1.56-1.59-.67-.33-1.44-.44-2.3-.33-1.38.17-2.5.8-3.36,1.88-.86,1.08-1.29,2.44-1.29,4.08s.43,2.89,1.29,3.76c.86.87,1.98,1.22,3.36,1.05.86-.1,1.62-.4,2.3-.89.67-.49,1.19-1.15,1.56-1.98l4.94-.61c-.53,2.09-1.57,3.81-3.12,5.17-1.56,1.36-3.43,2.17-5.62,2.44-1.79.22-3.38.01-4.79-.62-1.41-.64-2.51-1.62-3.3-2.97-.79-1.34-1.18-2.94-1.18-4.79s.39-3.54,1.18-5.09Z"/><path class="c" d="m163.36,300.59v18.71l-4.49.55v-7.7l-6.99.86v7.7l-4.49.55v-18.71l4.49-.55v7.33l6.99-.86v-7.33l4.49-.55Z"/><path class="c" d="m171.08,303.3v3.78l6.01-.74v3.52l-6.01.74v4.1l6.8-.83v3.65l-11.29,1.39v-18.71l11.29-1.39v3.65l-6.8.83Z"/><path class="c" d="m191.51,312.38v3.47l-10.37,1.27v-7.25l-1.71.72v-3.84l1.71-.72v-7.62l4.49-.55v6.26l2.18-.93v3.84l-2.18.93v5.14l5.88-.72Z"/><path class="c" d="m214.41,294.32v18.71l-4.49.55v-11.22l-4.12,11.73-3.62.44-4.15-10.74v11.25l-4.49.55v-18.71l5.3-.65,5.17,12.32,5.12-13.58,5.28-.65Z"/><path class="c" d="m222.13,293.38v18.71l-4.49.55v-18.71l4.49-.55Z"/><path class="c" d="m241.88,309.66l-4.49.55-7.51-10.62v11.54l-4.49.55v-18.71l4.49-.55,7.51,10.67v-11.59l4.49-.55v18.71Zm-5.2-21.83l-6.33,3.47v-3.15l6.33-3.87v3.54Z"/><path class="c" d="m248.18,308.41c-1.07-.31-1.92-.87-2.56-1.66-.64-.79-.98-1.8-1.01-3.02l4.78-.59c.07.68.31,1.19.71,1.5.4.32.93.43,1.58.35.67-.08,1.19-.3,1.58-.66.38-.36.58-.81.58-1.36,0-.46-.15-.83-.46-1.09-.31-.26-.68-.47-1.13-.61-.45-.14-1.08-.28-1.9-.43-1.19-.23-2.16-.48-2.92-.76-.75-.28-1.4-.75-1.94-1.41-.54-.66-.81-1.58-.81-2.75,0-1.74.62-3.18,1.86-4.32,1.24-1.14,2.86-1.83,4.86-2.08,2.03-.25,3.67.04,4.91.88,1.24.83,1.91,2.12,2,3.87l-4.86.6c-.04-.6-.25-1.05-.66-1.35-.4-.3-.92-.41-1.55-.33-.54.07-.98.27-1.31.6-.33.33-.5.78-.5,1.33,0,.6.28,1.04.84,1.31.56.27,1.43.53,2.62.77,1.19.26,2.16.54,2.9.82.74.28,1.39.75,1.93,1.39.54.64.81,1.53.81,2.65s-.27,2.07-.8,3c-.53.94-1.31,1.72-2.32,2.36-1.01.64-2.21,1.04-3.6,1.21-1.35.17-2.56.09-3.62-.22Z"/><path class="c" d="m271.97,305.97l-6.2-7.5v8.26l-4.49.55v-18.71l4.49-.55v8.21l6.15-8.96,5.28-.65-7.14,10.05,7.41,8.63-5.49.67Z"/><path class="c" d="m284.08,285.77v18.71l-4.49.55v-18.71l4.49-.55Z"/><path class="c" d="m394.76,305.55l-4.81,19.3-5.44.67-2.94-11.95-3.05,12.69-5.44.67-4.67-18.14,4.81-.59,2.65,13.29,3.28-14.02,4.94-.61,3.15,13.23,2.68-13.95,4.83-.59Z"/><path class="c" d="m414.53,324.66v2.56c-.84.37-1.71.61-2.6.72-1.14.14-2.07-.01-2.78-.46-.72-.44-1.08-1.17-1.08-2.19,0-.55.11-1.07.34-1.55.23-.48.61-.97,1.13-1.46l-1.05-3.02-6.88.85-1.1,3.44-4.7.58,6.67-19.53,5.2-.64,6.67,17.89-1.23.74c-.65.38-1.1.72-1.35,1.02-.25.3-.38.6-.38.9s.1.52.3.66c.2.14.5.18.88.13.56-.07,1.22-.28,1.97-.64Zm-7.19-8.77l-2.29-6.57-2.26,7.13,4.54-.56Z"/><path class="c" d="m430.1,311.94c.65.76.97,1.69.97,2.77,0,1.56-.54,2.87-1.61,3.92-1.08,1.05-2.58,1.69-4.5,1.93l-8.59,1.05v-18.71l8.3-1.02c1.87-.23,3.34.03,4.4.77,1.06.74,1.59,1.86,1.59,3.35,0,1.1-.28,2.05-.85,2.85-.57.8-1.33,1.4-2.27,1.8,1.07.1,1.93.53,2.57,1.3Zm-9.24-2.02l2.94-.36c.73-.09,1.3-.32,1.69-.7.39-.38.59-.89.59-1.52s-.2-1.1-.59-1.39c-.39-.29-.96-.39-1.69-.3l-2.94.36v3.92Zm5.05,6.32c.41-.4.62-.92.62-1.58s-.21-1.15-.64-1.47c-.43-.32-1.02-.44-1.77-.34l-3.26.4v4.13l3.31-.41c.75-.09,1.33-.34,1.75-.73Z"/><path class="c" d="m443.08,318.33l-3.83-6.59-1.08.13v7.06l-4.49.55v-18.71l7.54-.93c1.45-.18,2.69-.07,3.72.32,1.02.39,1.79,1,2.3,1.84.51.83.76,1.8.76,2.9,0,1.24-.35,2.4-1.04,3.46-.69,1.06-1.71,1.88-3.06,2.45l4.25,6.89-5.07.62Zm-4.91-9.69l2.78-.34c.82-.1,1.44-.38,1.85-.84.41-.46.62-1.06.62-1.81s-.21-1.24-.62-1.6c-.41-.36-1.03-.49-1.85-.39l-2.78.34v4.64Z"/><path class="c" d="m455.57,313.06l7.93-.97v3.73l-13.02,1.6v-3.47l7.88-12.48-7.88.97v-3.73l13.02-1.6v3.46l-7.93,12.49Z"/><path class="c" d="m470.94,299.85v3.78l6.01-.74v3.52l-6.01.74v4.1l6.8-.83v3.65l-11.29,1.39v-18.71l11.29-1.39v3.65l-6.8.83Z"/><path class="c" d="m483.7,312.86c-1.07-.31-1.92-.87-2.56-1.66-.64-.79-.98-1.8-1.01-3.02l4.78-.59c.07.68.31,1.18.71,1.5.4.32.93.43,1.58.35.67-.08,1.19-.3,1.58-.66.38-.36.58-.81.58-1.36,0-.46-.15-.82-.46-1.09-.31-.26-.68-.47-1.13-.61-.45-.14-1.08-.28-1.9-.43-1.19-.23-2.16-.48-2.92-.76-.75-.28-1.4-.75-1.94-1.41-.54-.66-.81-1.58-.81-2.75,0-1.74.62-3.18,1.86-4.32s2.86-1.83,4.86-2.08c2.03-.25,3.67.04,4.91.88,1.24.83,1.91,2.12,2,3.87l-4.86.6c-.04-.6-.25-1.05-.66-1.35-.4-.3-.92-.41-1.55-.33-.54.07-.98.27-1.31.6-.33.33-.5.78-.5,1.33,0,.6.28,1.04.84,1.31.56.27,1.43.53,2.62.77,1.19.26,2.16.54,2.9.82.74.28,1.39.75,1.93,1.39.54.64.81,1.53.81,2.65s-.27,2.07-.8,3c-.53.94-1.31,1.72-2.32,2.36-1.01.64-2.21,1.04-3.6,1.21-1.35.17-2.56.09-3.62-.22Z"/><path class="c" d="m507.49,310.42l-6.2-7.5v8.26l-4.49.55v-18.71l4.49-.55v8.21l6.15-8.96,5.28-.65-7.14,10.05,7.41,8.63-5.49.67Z"/><path class="c" d="m519.59,290.22v18.71l-4.49.55v-18.71l4.49-.55Z"/><path class="c" d="m679.88,338.03c.65.76.97,1.69.97,2.77,0,1.56-.54,2.87-1.61,3.92s-2.58,1.69-4.5,1.93l-8.59,1.05v-18.71l8.3-1.02c1.87-.23,3.34.03,4.4.77,1.06.74,1.59,1.86,1.59,3.35,0,1.1-.28,2.05-.85,2.85-.57.8-1.33,1.4-2.27,1.8,1.07.1,1.92.53,2.57,1.3Zm-9.24-2.02l2.94-.36c.74-.09,1.3-.32,1.69-.7.39-.38.59-.89.59-1.53s-.2-1.1-.59-1.39c-.39-.29-.96-.39-1.69-.3l-2.94.36v3.92Zm5.05,6.32c.41-.4.62-.92.62-1.58s-.21-1.15-.64-1.47c-.43-.32-1.02-.43-1.77-.34l-3.26.4v4.13l3.31-.41c.75-.09,1.33-.34,1.75-.73Z"/><path class="c" d="m692.85,344.42l-3.83-6.59-1.08.13v7.06l-4.49.55v-18.71l7.54-.93c1.45-.18,2.69-.07,3.71.32,1.02.39,1.79,1,2.3,1.84s.76,1.8.76,2.91c0,1.24-.35,2.4-1.04,3.46-.69,1.06-1.71,1.88-3.06,2.46l4.25,6.89-5.07.62Zm-4.91-9.69l2.78-.34c.82-.1,1.44-.38,1.85-.84.41-.46.62-1.06.62-1.81s-.21-1.24-.62-1.6c-.41-.36-1.03-.49-1.85-.39l-2.78.34v4.64Z"/><path class="c" d="m704.53,341.95c-1.44-.64-2.59-1.64-3.44-3-.85-1.36-1.27-2.96-1.27-4.79s.42-3.53,1.27-5.09c.85-1.56,2-2.84,3.44-3.83,1.44-.99,3.03-1.6,4.77-1.81,1.73-.21,3.32,0,4.77.64s2.58,1.64,3.41,2.99c.83,1.35,1.25,2.95,1.25,4.78s-.42,3.53-1.26,5.1c-.84,1.57-1.98,2.85-3.41,3.84-1.44.99-3.02,1.6-4.75,1.81-1.73.21-3.32,0-4.77-.64Zm8.3-5.44c.88-1.1,1.33-2.47,1.33-4.11s-.44-2.92-1.33-3.8c-.88-.88-2.06-1.23-3.53-1.05-1.49.18-2.67.82-3.56,1.9s-1.33,2.46-1.33,4.13.44,2.92,1.33,3.8c.88.88,2.07,1.23,3.56,1.04,1.47-.18,2.65-.82,3.53-1.93Z"/><path class="c" d="m733.22,321.92c1.45.6,2.58,1.56,3.37,2.88.8,1.32,1.19,2.9,1.19,4.74s-.4,3.51-1.19,5.02c-.8,1.52-1.93,2.76-3.39,3.72-1.46.96-3.16,1.56-5.08,1.8l-6.91.85v-18.71l6.91-.85c1.94-.24,3.64-.06,5.09.55Zm-1.42,12.35c.94-1.06,1.42-2.45,1.42-4.17s-.47-3.01-1.42-3.85c-.95-.84-2.27-1.16-3.97-.95l-2.13.26v10.88l2.13-.26c1.7-.21,3.02-.84,3.97-1.9Z"/><path class="c" d="m756.8,336.57l-4.49.55-7.51-10.62v11.54l-4.49.55v-18.71l4.49-.55,7.51,10.67v-11.59l4.49-.55v18.71Z"/><path class="c" d="m764.54,316.9v18.71l-4.49.55v-18.71l4.49-.55Z"/><path class="c" d="m768.22,320.84c.79-1.54,1.89-2.81,3.29-3.79,1.41-.98,3.01-1.58,4.79-1.8,2.19-.27,4.06.09,5.62,1.07,1.56.98,2.6,2.45,3.12,4.41l-4.94.61c-.37-.74-.89-1.27-1.56-1.59-.67-.33-1.44-.44-2.3-.33-1.38.17-2.5.8-3.36,1.88-.86,1.08-1.29,2.44-1.29,4.08s.43,2.89,1.29,3.76c.86.87,1.98,1.22,3.36,1.05.86-.11,1.62-.4,2.3-.9.67-.49,1.19-1.15,1.56-1.98l4.94-.61c-.53,2.09-1.57,3.81-3.12,5.17-1.56,1.36-3.43,2.17-5.62,2.44-1.79.22-3.38.01-4.79-.62s-2.51-1.62-3.29-2.97c-.79-1.34-1.18-2.94-1.18-4.79s.39-3.54,1.18-5.09Z"/><path class="c" d="m798.5,331.45l-6.2-7.5v8.26l-4.49.55v-18.71l4.49-.55v8.21l6.15-8.96,5.28-.65-7.14,10.05,7.41,8.63-5.49.67Z"/><path class="c" d="m810.6,311.25v18.71l-4.49.55v-18.71l4.49-.55Z"/><path class="c" d="m432.55,472.96c-.28-.49-.68-.84-1.2-1.05-.52-.21-1.13-.27-1.84-.19-1.22.15-2.2.68-2.93,1.58-.73.9-1.1,2.03-1.1,3.39,0,1.45.39,2.53,1.16,3.25.77.72,1.83,1,3.18.83.93-.11,1.71-.45,2.35-1.01.64-.55,1.11-1.3,1.4-2.23l-4.78.59v-2.82l8.2-1.01v3.56c-.28.99-.75,1.93-1.42,2.84-.67.9-1.52,1.67-2.55,2.3s-2.19,1.03-3.48,1.19c-1.53.19-2.89.01-4.09-.52-1.2-.53-2.13-1.36-2.8-2.49-.67-1.13-1-2.46-1-4.02s.33-2.98,1-4.27,1.6-2.36,2.79-3.18c1.19-.82,2.55-1.33,4.08-1.52,1.85-.23,3.41.04,4.68.79,1.27.75,2.11,1.91,2.52,3.47l-4.17.51Z"/><path class="c" d="m442.39,481.62c-1.21-.54-2.17-1.38-2.89-2.52-.71-1.14-1.07-2.48-1.07-4.02s.36-2.96,1.07-4.27c.71-1.31,1.67-2.38,2.89-3.22,1.21-.83,2.55-1.34,4-1.52,1.45-.18,2.79,0,4,.54,1.21.54,2.17,1.38,2.87,2.51.7,1.14,1.05,2.47,1.05,4.01s-.35,2.96-1.06,4.28c-.71,1.32-1.66,2.39-2.87,3.23s-2.54,1.34-3.99,1.52c-1.46.18-2.79,0-4-.54Zm6.97-4.57c.74-.93,1.11-2.08,1.11-3.45s-.37-2.45-1.11-3.19c-.74-.74-1.73-1.03-2.96-.88-1.25.15-2.25.69-2.99,1.6-.74.91-1.11,2.07-1.11,3.47s.37,2.45,1.11,3.19c.74.74,1.74,1.03,2.99.88,1.23-.15,2.22-.69,2.96-1.62Z"/><path class="c" d="m460.17,477.35l4.94-.61v2.95l-8.71,1.07v-15.71l3.77-.46v12.75Z"/><path class="c" d="m470.62,463.32v9.4c0,.94.23,1.64.68,2.09.46.45,1.12.62,2.01.51.88-.11,1.56-.45,2.03-1.01s.71-1.32.71-2.26v-9.4l3.77-.46v9.38c0,1.4-.29,2.62-.88,3.67-.59,1.04-1.38,1.87-2.37,2.48-.99.61-2.1,1-3.32,1.15-1.22.15-2.31.04-3.27-.32-.96-.37-1.72-1-2.28-1.91-.56-.91-.84-2.06-.84-3.47v-9.38l3.77-.46Z"/><path class="c" d="m493.99,469.45c.54.64.81,1.42.81,2.33,0,1.31-.45,2.41-1.36,3.29-.9.88-2.16,1.42-3.78,1.62l-7.21.88v-15.71l6.97-.86c1.57-.19,2.8.02,3.69.64.89.62,1.33,1.56,1.33,2.81,0,.92-.24,1.72-.72,2.39-.48.67-1.11,1.17-1.91,1.51.9.08,1.62.45,2.16,1.09Zm-7.76-1.7l2.47-.3c.62-.08,1.09-.27,1.42-.59.33-.32.5-.74.5-1.28s-.17-.93-.5-1.17c-.33-.24-.8-.33-1.42-.25l-2.47.3v3.29Zm4.24,5.31c.34-.33.52-.78.52-1.33s-.18-.96-.54-1.23c-.36-.27-.86-.36-1.49-.29l-2.73.34v3.47l2.78-.34c.63-.08,1.12-.28,1.47-.62Z"/><path class="c" d="m499.54,475.07c-.9-.26-1.61-.73-2.15-1.39-.54-.66-.82-1.51-.85-2.54l4.01-.49c.06.58.26,1,.6,1.26.34.26.78.36,1.32.3.56-.07,1-.25,1.32-.55.32-.3.48-.68.48-1.14,0-.39-.13-.69-.39-.92-.26-.22-.57-.39-.95-.51s-.91-.24-1.6-.36c-1-.19-1.82-.4-2.45-.64-.63-.24-1.18-.63-1.63-1.19-.46-.55-.68-1.33-.68-2.31,0-1.46.52-2.67,1.56-3.63,1.04-.96,2.4-1.54,4.08-1.74,1.71-.21,3.08.04,4.12.74,1.04.7,1.6,1.78,1.68,3.25l-4.08.5c-.03-.5-.21-.88-.55-1.13-.34-.25-.77-.34-1.3-.28-.46.06-.82.22-1.1.5-.28.28-.42.65-.42,1.11,0,.51.24.87.71,1.1.47.23,1.21.44,2.2.65,1,.22,1.81.45,2.44.69.62.24,1.17.62,1.62,1.17.46.54.68,1.28.68,2.22s-.22,1.74-.67,2.52c-.45.79-1.1,1.45-1.95,1.98s-1.86.88-3.02,1.02c-1.13.14-2.15.08-3.04-.19Z"/><path class="c" d="m519.52,473.02l-5.2-6.3v6.94l-3.77.46v-15.71l3.77-.46v6.89l5.16-7.53,4.43-.54-6,8.43,6.22,7.25-4.61.57Z"/><path class="c" d="m529.23,470.96c-1.21-.54-2.18-1.38-2.89-2.52-.71-1.14-1.07-2.48-1.07-4.02s.36-2.96,1.07-4.27c.71-1.31,1.67-2.38,2.89-3.22,1.21-.83,2.55-1.34,4-1.52s2.79,0,4,.54,2.17,1.38,2.87,2.51,1.05,2.47,1.05,4.01-.35,2.96-1.06,4.28-1.66,2.39-2.87,3.23c-1.21.83-2.53,1.34-3.99,1.52s-2.79,0-4-.54Zm6.97-4.57c.74-.93,1.11-2.08,1.11-3.45s-.37-2.45-1.11-3.19c-.74-.74-1.73-1.03-2.96-.88-1.25.15-2.25.69-2.99,1.6-.74.91-1.11,2.07-1.11,3.47s.37,2.45,1.11,3.19c.74.74,1.74,1.03,2.99.88,1.23-.15,2.22-.69,2.96-1.62Z"/><path class="c" d="m552.71,459.5v3.18l-9.7,1.19v-3.18l9.7-1.19Z"/><path class="c" d="m431.76,501.21v3.18l-9.7,1.19v-3.18l9.7-1.19Z"/><path class="c" d="m445.14,494.28c1.22.51,2.16,1.31,2.83,2.42.67,1.1,1,2.43,1,3.98s-.33,2.94-1,4.22c-.67,1.28-1.62,2.32-2.84,3.12-1.23.81-2.65,1.31-4.26,1.51l-5.8.71v-15.71l5.8-.71c1.63-.2,3.06-.05,4.28.46Zm-1.19,10.37c.79-.89,1.19-2.06,1.19-3.5s-.4-2.52-1.19-3.23c-.79-.71-1.9-.97-3.33-.8l-1.79.22v9.13l1.79-.22c1.43-.17,2.54-.71,3.33-1.59Z"/><path class="c" d="m454.41,507c-1.21-.54-2.17-1.38-2.89-2.52s-1.07-2.48-1.07-4.02.36-2.96,1.07-4.27c.71-1.31,1.67-2.38,2.89-3.22s2.55-1.34,4-1.52,2.79,0,4,.54c1.21.54,2.17,1.38,2.87,2.51.7,1.14,1.05,2.47,1.05,4.01s-.35,2.96-1.06,4.28c-.71,1.32-1.66,2.39-2.87,3.23-1.2.83-2.53,1.34-3.99,1.52s-2.79,0-4-.54Zm6.97-4.57c.74-.93,1.11-2.08,1.11-3.45s-.37-2.45-1.11-3.19-1.73-1.03-2.96-.88c-1.25.15-2.25.69-2.99,1.6-.74.91-1.11,2.07-1.11,3.47s.37,2.45,1.11,3.19c.74.74,1.74,1.03,2.99.88,1.23-.15,2.22-.69,2.96-1.62Z"/><path class="c" d="m479.95,498.03c.54.64.81,1.42.81,2.33,0,1.31-.45,2.41-1.36,3.29-.9.88-2.16,1.42-3.78,1.62l-7.21.88v-15.71l6.97-.85c1.57-.19,2.8.02,3.69.64.89.62,1.33,1.56,1.33,2.81,0,.92-.24,1.72-.72,2.39-.48.67-1.11,1.17-1.91,1.51.9.08,1.62.45,2.16,1.09Zm-7.76-1.7l2.47-.3c.62-.08,1.09-.27,1.42-.59.33-.32.5-.74.5-1.28s-.17-.93-.5-1.17c-.33-.24-.8-.33-1.42-.25l-2.47.3v3.29Zm4.24,5.31c.34-.33.52-.78.52-1.33s-.18-.96-.54-1.23-.86-.37-1.49-.29l-2.73.33v3.47l2.78-.34c.63-.08,1.12-.28,1.47-.62Z"/><path class="c" d="m490.84,503.4l-3.22-5.54-.91.11v5.93l-3.77.46v-15.71l6.33-.78c1.22-.15,2.26-.06,3.12.27s1.5.84,1.93,1.54c.43.7.64,1.51.64,2.44,0,1.04-.29,2.01-.87,2.91-.58.89-1.44,1.58-2.57,2.06l3.57,5.78-4.25.52Zm-4.12-8.13l2.34-.29c.69-.08,1.21-.32,1.55-.71.34-.39.52-.89.52-1.52s-.17-1.05-.52-1.35c-.35-.3-.86-.41-1.55-.32l-2.34.29v3.89Z"/><path class="c" d="m501.33,498.98l6.66-.82v3.13l-10.93,1.34v-2.91l6.61-10.48-6.61.81v-3.13l10.93-1.34v2.91l-6.66,10.48Z"/><path class="c" d="m523.73,483.65l-5.36,11.18v5.19l-3.77.46v-5.19l-5.36-9.86,4.28-.53,3,6.21,2.98-6.95,4.23-.52Z"/><path class="c" d="m539.09,497.47l-3.77.46-6.31-8.92v9.69l-3.77.46v-15.71l3.77-.46,6.31,8.96v-9.73l3.77-.46v15.71Zm-4.37-18.33l-5.31,2.91v-2.64l5.31-3.25v2.98Z"/><path class="c" d="m544.38,496.42c-.9-.26-1.61-.73-2.15-1.39-.54-.67-.82-1.51-.85-2.54l4.01-.49c.06.57.26.99.6,1.26.34.27.78.36,1.32.3.56-.07,1-.25,1.32-.55.32-.3.49-.68.49-1.14,0-.39-.13-.69-.39-.91s-.57-.39-.95-.51-.91-.24-1.6-.36c-1-.19-1.82-.4-2.45-.64-.63-.24-1.18-.63-1.63-1.19-.46-.56-.68-1.33-.68-2.31,0-1.46.52-2.67,1.56-3.63,1.04-.96,2.4-1.54,4.08-1.74,1.71-.21,3.08.04,4.12.74,1.04.7,1.6,1.78,1.67,3.25l-4.08.5c-.03-.5-.21-.88-.55-1.13-.34-.25-.77-.34-1.3-.28-.46.06-.82.22-1.1.5-.28.28-.42.65-.42,1.11,0,.51.24.87.71,1.1.47.23,1.2.44,2.2.65,1,.22,1.81.45,2.44.69.62.24,1.17.63,1.62,1.17.46.54.68,1.28.68,2.22s-.22,1.74-.67,2.52c-.45.79-1.1,1.45-1.95,1.98s-1.86.88-3.02,1.02c-1.13.14-2.15.08-3.04-.18Z"/><path class="c" d="m564.35,494.37l-5.2-6.3v6.94l-3.77.46v-15.71l3.77-.46v6.89l5.16-7.53,4.43-.54-6,8.43,6.22,7.25-4.61.57Z"/><path class="c" d="m574.52,477.41v15.71l-3.77.46v-15.71l3.77-.46Z"/><path class="c" d="m670.55,554.54l-3.83-6.59-1.08.13v7.06l-4.49.55v-18.71l7.54-.92c1.45-.18,2.69-.07,3.71.32,1.02.39,1.79,1,2.3,1.84s.76,1.8.76,2.91c0,1.24-.35,2.4-1.04,3.46-.69,1.06-1.71,1.88-3.06,2.46l4.25,6.89-5.07.62Zm-4.91-9.69l2.78-.34c.82-.1,1.44-.38,1.85-.84.41-.46.62-1.06.62-1.81s-.21-1.24-.62-1.6c-.41-.36-1.03-.49-1.85-.38l-2.78.34v4.64Z"/><path class="c" d="m694.08,532.94l-6.38,13.31v6.18l-4.49.55v-6.18l-6.38-11.74,5.09-.62,3.57,7.4,3.54-8.27,5.04-.62Z"/><path class="c" d="m709.2,540.08c-.49.96-1.24,1.77-2.26,2.45-1.01.67-2.28,1.11-3.78,1.29l-2.78.34v6.72l-4.49.55v-18.71l7.27-.89c1.47-.18,2.71-.08,3.73.31,1.01.39,1.78,1.01,2.28,1.85.51.84.76,1.85.76,3.03,0,1.08-.25,2.11-.74,3.06Zm-4.46-.69c.42-.46.63-1.06.63-1.81s-.21-1.3-.63-1.66-1.06-.48-1.92-.38l-2.44.3v4.69l2.44-.3c.86-.11,1.5-.39,1.92-.85Z"/><path class="c" d="m716.77,530.16v18.71l-4.49.55v-18.71l4.49-.55Z"/><path class="c" d="m736.51,546.44l-4.49.55-7.51-10.62v11.54l-4.49.55v-18.71l4.49-.55,7.51,10.67v-11.59l4.49-.55v18.71Zm-5.2-21.83l-6.33,3.47v-3.15l6.33-3.87v3.55Z"/><path class="c" d="m742.82,545.19c-1.07-.31-1.92-.87-2.56-1.66-.64-.79-.98-1.8-1.01-3.02l4.78-.59c.07.68.31,1.18.71,1.5.4.32.93.43,1.58.35.67-.08,1.19-.3,1.58-.66.38-.36.58-.81.58-1.36,0-.46-.15-.82-.46-1.09-.31-.26-.68-.47-1.13-.61-.45-.14-1.08-.28-1.9-.43-1.19-.23-2.16-.48-2.92-.76-.75-.28-1.4-.75-1.94-1.41-.54-.66-.81-1.58-.81-2.75,0-1.74.62-3.18,1.86-4.32s2.86-1.83,4.86-2.08c2.03-.25,3.67.04,4.91.88,1.24.83,1.91,2.12,2,3.87l-4.86.6c-.04-.6-.25-1.05-.66-1.35-.4-.3-.92-.41-1.55-.33-.54.07-.98.27-1.31.6-.33.33-.5.78-.5,1.33,0,.6.28,1.04.84,1.31.56.27,1.43.53,2.62.77,1.19.26,2.16.54,2.9.82.74.28,1.39.75,1.93,1.39.54.64.81,1.53.81,2.65s-.27,2.07-.8,3-1.31,1.72-2.32,2.36c-1.01.64-2.21,1.04-3.6,1.21-1.35.17-2.56.09-3.62-.22Z"/><path class="c" d="m766.61,542.75l-6.2-7.5v8.26l-4.49.55v-18.71l4.49-.55v8.21l6.15-8.96,5.28-.65-7.14,10.05,7.41,8.63-5.49.67Z"/><path class="c" d="m778.71,522.55v18.71l-4.49.55v-18.71l4.49-.55Z"/><path class="c" d="m549.64,744.63l5.88-.72v3.52l-10.37,1.27v-18.71l4.49-.55v15.19Z"/><path class="c" d="m562.16,727.9v18.71l-4.49.55v-18.71l4.49-.55Z"/><path class="c" d="m578.73,734.86c-.49.96-1.24,1.77-2.26,2.45-1.02.67-2.28,1.11-3.78,1.29l-2.78.34v6.72l-4.49.55v-18.71l7.27-.89c1.47-.18,2.71-.08,3.73.31,1.01.39,1.78,1.01,2.28,1.85.51.84.76,1.85.76,3.02,0,1.08-.25,2.11-.74,3.06Zm-4.46-.69c.42-.46.63-1.06.63-1.81s-.21-1.3-.63-1.66c-.42-.36-1.06-.48-1.92-.38l-2.44.3v4.69l2.44-.3c.86-.11,1.5-.39,1.92-.85Z"/><path class="c" d="m598.3,742.17l-4.49.55-7.51-10.62v11.54l-4.49.55v-18.71l4.49-.55,7.51,10.67v-11.59l4.49-.55v18.71Z"/><path class="c" d="m605.51,740.25c-1.44-.64-2.59-1.64-3.44-3-.85-1.36-1.27-2.96-1.27-4.79s.42-3.53,1.27-5.09c.85-1.56,2-2.84,3.44-3.83,1.44-1,3.03-1.6,4.77-1.81,1.73-.21,3.32,0,4.77.64,1.44.64,2.58,1.64,3.41,2.99.83,1.36,1.25,2.95,1.25,4.78s-.42,3.53-1.26,5.1c-.84,1.57-1.98,2.85-3.41,3.84-1.44.99-3.02,1.6-4.75,1.81-1.73.21-3.32,0-4.77-.64Zm8.3-5.44c.88-1.1,1.33-2.47,1.33-4.11s-.44-2.92-1.33-3.79c-.88-.88-2.06-1.23-3.53-1.05-1.49.18-2.67.82-3.56,1.9s-1.33,2.46-1.33,4.13.44,2.92,1.33,3.8c.88.88,2.07,1.22,3.56,1.04,1.47-.18,2.65-.82,3.53-1.93Z"/><path class="c" d="m647.56,717.41l-4.81,19.3-5.44.67-2.94-11.95-3.04,12.69-5.44.67-4.67-18.14,4.81-.59,2.65,13.29,3.28-14.02,4.94-.61,3.15,13.23,2.68-13.95,4.83-.59Z"/><path class="c" d="m652.86,734.99c-1.07-.31-1.92-.87-2.56-1.66-.64-.79-.98-1.8-1.01-3.02l4.78-.59c.07.68.31,1.18.71,1.5.4.32.93.43,1.58.35.67-.08,1.19-.3,1.58-.66.38-.36.58-.81.58-1.36,0-.46-.15-.83-.46-1.09-.31-.26-.68-.47-1.13-.61s-1.08-.28-1.9-.43c-1.19-.23-2.16-.48-2.92-.76-.75-.28-1.4-.75-1.94-1.41-.54-.66-.81-1.58-.81-2.75,0-1.74.62-3.18,1.87-4.32,1.24-1.14,2.86-1.83,4.86-2.08,2.03-.25,3.67.04,4.91.88,1.24.83,1.91,2.12,2,3.87l-4.86.6c-.04-.6-.25-1.05-.66-1.35-.4-.3-.92-.41-1.55-.33-.54.07-.98.27-1.31.6-.33.33-.5.78-.5,1.33,0,.6.28,1.04.84,1.31.56.27,1.43.53,2.63.77,1.19.26,2.16.54,2.9.82.74.28,1.39.75,1.93,1.39.54.64.81,1.53.81,2.65s-.27,2.07-.8,3c-.53.94-1.31,1.72-2.32,2.37-1.02.64-2.21,1.04-3.6,1.21-1.35.17-2.56.09-3.62-.22Z"/><path class="c" d="m676.66,732.55l-6.2-7.5v8.26l-4.49.55v-18.71l4.49-.55v8.21l6.15-8.96,5.28-.65-7.14,10.05,7.41,8.63-5.49.67Z"/><path class="c" d="m688.76,712.35v18.71l-4.49.55v-18.71l4.49-.55Z"/><polygon class="b" points="508.05 897.33 496.89 886.58 475.05 865.55 459.09 860.33 453.74 878.83 487.05 908.33 475.05 936.33 491.05 943.33 556.04 908.64 546.05 873.33 508.05 897.33"/><path class="c" d="m433.22,1033.94l-4.81,19.3-5.44.67-2.94-11.95-3.05,12.69-5.44.67-4.67-18.14,4.81-.59,2.65,13.29,3.28-14.02,4.94-.61,3.15,13.23,2.68-13.95,4.83-.59Z"/><path class="c" d="m446.19,1047.6v3.46l-10.37,1.27v-7.25l-1.71.72v-3.84l1.71-.72v-7.62l4.49-.55v6.26l2.18-.93v3.84l-2.18.93v5.14l5.88-.72Z"/><path class="c" d="m452.16,1049.29c-1.44-.64-2.59-1.64-3.44-3-.85-1.36-1.27-2.96-1.27-4.79s.42-3.53,1.27-5.09c.85-1.56,2-2.84,3.44-3.83s3.03-1.6,4.77-1.81,3.32,0,4.77.64c1.44.64,2.58,1.64,3.41,2.99.83,1.36,1.25,2.95,1.25,4.78s-.42,3.53-1.26,5.1c-.84,1.57-1.98,2.85-3.41,3.84-1.44.99-3.02,1.6-4.75,1.81-1.73.21-3.32,0-4.77-.64Zm8.3-5.44c.88-1.1,1.33-2.47,1.33-4.11s-.44-2.92-1.33-3.79c-.88-.88-2.06-1.23-3.53-1.05-1.49.18-2.67.82-3.56,1.9-.88,1.09-1.33,2.46-1.33,4.13s.44,2.92,1.33,3.79c.88.88,2.07,1.22,3.56,1.04,1.47-.18,2.65-.82,3.53-1.93Z"/><path class="c" d="m469.27,1033.9c.79-1.54,1.89-2.81,3.3-3.79,1.41-.98,3.01-1.58,4.79-1.8,2.19-.27,4.06.09,5.62,1.07,1.56.98,2.6,2.45,3.12,4.41l-4.94.61c-.37-.74-.89-1.27-1.56-1.59-.67-.33-1.44-.44-2.3-.33-1.38.17-2.5.8-3.36,1.88-.86,1.08-1.29,2.44-1.29,4.08s.43,2.89,1.29,3.76c.86.87,1.98,1.22,3.36,1.05.86-.11,1.62-.4,2.3-.9.67-.49,1.19-1.15,1.56-1.98l4.94-.61c-.53,2.09-1.57,3.81-3.12,5.17-1.56,1.36-3.43,2.17-5.62,2.44-1.79.22-3.38.01-4.79-.62-1.41-.63-2.51-1.62-3.3-2.97-.79-1.34-1.18-2.94-1.18-4.79s.39-3.54,1.18-5.09Z"/><path class="c" d="m499.58,1041.04v3.46l-10.37,1.27v-7.25l-1.71.72v-3.84l1.71-.72v-7.62l4.49-.55v6.26l2.18-.93v3.84l-2.18.93v5.14l5.88-.72Z"/><path class="c" d="m513.07,1039.54l-6.88.84-1.1,3.44-4.7.58,6.67-19.53,5.2-.64,6.67,17.89-4.75.58-1.1-3.17Zm-1.16-3.38l-2.28-6.57-2.26,7.13,4.54-.56Z"/><path class="c" d="m546.32,1020.06l-4.81,19.3-5.44.67-2.94-11.95-3.04,12.69-5.44.67-4.67-18.14,4.81-.59,2.65,13.29,3.28-14.02,4.94-.61,3.15,13.23,2.68-13.95,4.83-.59Z"/><path class="c" d="m551.62,1037.64c-1.07-.31-1.92-.87-2.56-1.66-.64-.79-.98-1.8-1.01-3.02l4.78-.59c.07.68.3,1.18.71,1.5.4.31.93.43,1.58.35.67-.08,1.19-.3,1.58-.66.38-.36.58-.81.58-1.36,0-.46-.15-.83-.46-1.09s-.68-.47-1.13-.61c-.45-.14-1.08-.28-1.9-.43-1.19-.23-2.16-.48-2.91-.76-.75-.28-1.4-.75-1.94-1.41-.54-.66-.81-1.58-.81-2.75,0-1.74.62-3.18,1.87-4.32,1.24-1.14,2.86-1.83,4.86-2.08,2.03-.25,3.67.04,4.91.88,1.24.83,1.91,2.12,2,3.87l-4.86.6c-.04-.6-.25-1.05-.66-1.35-.4-.3-.92-.41-1.55-.33-.54.07-.98.27-1.31.6-.33.33-.5.78-.5,1.33,0,.6.28,1.04.84,1.31.56.27,1.43.53,2.63.77,1.19.26,2.16.54,2.9.82.75.28,1.39.75,1.93,1.39.54.64.81,1.53.81,2.65s-.27,2.07-.8,3c-.53.94-1.31,1.72-2.33,2.36-1.01.64-2.21,1.04-3.6,1.21-1.35.17-2.56.09-3.62-.22Z"/><path class="c" d="m575.41,1035.2l-6.2-7.5v8.26l-4.49.55v-18.71l4.49-.55v8.21l6.14-8.96,5.28-.65-7.14,10.05,7.41,8.63-5.49.67Z"/><path class="c" d="m587.52,1015v18.71l-4.49.55v-18.71l4.49-.55Z"/><path class="c" d="m218.13,957.69l-3.86-6.65-1.08.13v7.12l-4.53.56v-18.86l7.6-.93c1.46-.18,2.71-.07,3.75.32,1.03.39,1.8,1.01,2.32,1.85.51.84.77,1.82.77,2.93,0,1.25-.35,2.42-1.05,3.49-.7,1.07-1.72,1.9-3.08,2.47l4.29,6.94-5.11.63Zm-4.95-9.76l2.81-.34c.83-.1,1.45-.38,1.87-.85s.62-1.07.62-1.82-.21-1.26-.62-1.62c-.41-.36-1.04-.49-1.87-.39l-2.81.34v4.67Z"/><path class="c" d="m237.48,951.98l-6.93.85-1.11,3.47-4.74.58,6.72-19.69,5.24-.64,6.72,18.04-4.79.59-1.11-3.2Zm-1.17-3.4l-2.3-6.62-2.28,7.19,4.58-.56Z"/><path class="c" d="m257.52,935.17c1.46.61,2.6,1.58,3.4,2.9.8,1.33,1.21,2.92,1.21,4.78s-.4,3.53-1.21,5.07c-.8,1.53-1.94,2.78-3.42,3.75-1.47.97-3.18,1.57-5.12,1.81l-6.96.85v-18.86l6.96-.85c1.96-.24,3.67-.06,5.13.55Zm-1.43,12.46c.95-1.07,1.43-2.47,1.43-4.21s-.48-3.03-1.43-3.88c-.95-.85-2.29-1.17-4-.96l-2.14.26v10.96l2.14-.26c1.71-.21,3.04-.85,4-1.91Z"/><path class="c" d="m269.48,947.62l7.99-.98v3.76l-13.13,1.61v-3.49l7.94-12.58-7.94.98v-3.76l13.13-1.61v3.49l-7.99,12.59Z"/><path class="c" d="m284.96,930.62v18.86l-4.53.56v-18.86l4.53-.56Z"/><path class="c" d="m292.77,933.34v3.82l6.06-.74v3.55l-6.06.74v4.14l6.86-.84v3.68l-11.38,1.4v-18.86l11.38-1.4v3.68l-6.86.84Z"/><path class="c" d="m313.95,934.59v3.82l-11.65,1.43v-3.82l11.65-1.43Z"/><path class="c" d="m220.3,970.8v12.84c0,1.99-.55,3.59-1.66,4.8-1.1,1.21-2.59,1.93-4.46,2.16-1.96.24-3.53-.13-4.71-1.12-1.18-.98-1.77-2.51-1.77-4.59l4.5-.55c0,.79.16,1.36.48,1.73.32.36.78.51,1.38.44.55-.07.97-.3,1.27-.69.3-.4.45-.93.45-1.61v-12.84l4.53-.56Z"/><path class="c" d="m227.94,987.68c-1.46-.64-2.61-1.65-3.47-3.03-.86-1.37-1.28-2.98-1.28-4.83s.43-3.55,1.28-5.13c.86-1.57,2.01-2.86,3.47-3.87,1.46-1,3.06-1.61,4.8-1.83s3.35,0,4.8.65c1.46.65,2.6,1.65,3.44,3.02.84,1.37,1.26,2.97,1.26,4.82s-.42,3.56-1.27,5.14c-.85,1.58-1.99,2.87-3.44,3.88-1.45,1-3.04,1.61-4.79,1.82-1.75.21-3.35,0-4.8-.65Zm8.36-5.49c.89-1.11,1.34-2.49,1.34-4.14s-.45-2.94-1.34-3.83c-.89-.88-2.08-1.24-3.56-1.05-1.5.18-2.7.82-3.59,1.92-.89,1.09-1.34,2.48-1.34,4.17s.45,2.94,1.34,3.83c.89.88,2.09,1.24,3.59,1.05,1.48-.18,2.67-.83,3.56-1.94Z"/><path class="c" d="m270.33,964.66l-4.84,19.46-5.48.67-2.96-12.05-3.07,12.79-5.48.67-4.71-18.28,4.84-.59,2.67,13.4,3.31-14.14,4.98-.61,3.18,13.34,2.7-14.06,4.87-.6Z"/><path class="c" d="m275.67,982.38c-1.08-.32-1.94-.87-2.58-1.67s-.98-1.81-1.02-3.05l4.82-.59c.07.69.31,1.19.71,1.51.41.32.94.44,1.59.36.67-.08,1.2-.3,1.59-.67.39-.36.58-.82.58-1.38,0-.46-.15-.83-.46-1.1-.31-.27-.69-.47-1.14-.61-.45-.14-1.09-.29-1.92-.44-1.2-.23-2.18-.48-2.94-.77-.76-.28-1.41-.76-1.96-1.43-.55-.67-.82-1.59-.82-2.77,0-1.76.63-3.21,1.88-4.36,1.25-1.15,2.88-1.85,4.9-2.09,2.05-.25,3.7.04,4.95.88,1.25.84,1.92,2.14,2.01,3.9l-4.9.6c-.04-.6-.26-1.06-.66-1.36-.41-.3-.93-.41-1.56-.33-.55.07-.99.27-1.32.61-.33.34-.5.78-.5,1.34,0,.61.28,1.05.85,1.32.56.27,1.45.53,2.65.78,1.2.26,2.18.54,2.93.82.75.28,1.4.75,1.95,1.4.55.65.82,1.54.82,2.67s-.27,2.08-.81,3.03c-.54.94-1.32,1.74-2.34,2.38-1.02.65-2.23,1.05-3.63,1.22-1.36.17-2.58.09-3.65-.22Z"/><path class="c" d="m299.66,979.92l-6.25-7.56v8.33l-4.53.56v-18.86l4.53-.56v8.28l6.19-9.04,5.32-.65-7.2,10.13,7.46,8.7-5.53.68Z"/><path class="c" d="m311.86,959.56v18.86l-4.53.56v-18.86l4.53-.56Z"/><path class="c" d="m275.7,754.3l-6.88.84-1.1,3.44-4.7.58,6.67-19.53,5.2-.64,6.67,17.89-4.75.58-1.1-3.17Zm-1.16-3.38l-2.28-6.57-2.26,7.13,4.54-.56Z"/><path class="c" d="m288.06,752.57l5.88-.72v3.52l-10.37,1.27v-18.71l4.49-.55v15.19Z"/><path class="c" d="m300.59,739.49v3.78l6.01-.74v3.52l-6.01.74v4.11l6.8-.84v3.65l-11.29,1.39v-18.71l11.29-1.39v3.65l-6.8.84Z"/><path class="c" d="m320.99,752.04l-6.2-7.5v8.26l-4.49.55v-18.71l4.49-.55v8.21l6.14-8.96,5.28-.65-7.14,10.05,7.41,8.63-5.49.67Z"/><path class="c" d="m331.65,750.25c-1.07-.31-1.92-.87-2.56-1.66-.64-.79-.98-1.8-1.01-3.02l4.78-.59c.07.68.3,1.18.71,1.5.4.32.93.43,1.58.35.67-.08,1.19-.3,1.58-.66.38-.36.58-.81.58-1.36,0-.46-.15-.82-.46-1.09s-.68-.47-1.13-.61c-.45-.14-1.08-.28-1.9-.43-1.19-.23-2.16-.48-2.91-.76-.75-.28-1.4-.75-1.94-1.41-.54-.66-.81-1.58-.81-2.75,0-1.74.62-3.18,1.87-4.32,1.24-1.14,2.86-1.83,4.86-2.08,2.03-.25,3.67.04,4.91.88,1.24.83,1.91,2.12,2,3.87l-4.86.6c-.04-.6-.25-1.05-.66-1.35-.4-.3-.92-.41-1.55-.33-.54.07-.98.27-1.31.6-.33.33-.5.78-.5,1.33,0,.6.28,1.04.84,1.31.56.27,1.43.53,2.63.77,1.19.26,2.16.54,2.9.82.74.28,1.39.75,1.93,1.39.54.64.81,1.53.81,2.65s-.27,2.07-.8,3c-.53.94-1.31,1.72-2.33,2.36-1.01.64-2.21,1.04-3.6,1.21-1.35.17-2.56.09-3.62-.22Z"/><path class="c" d="m356.23,744.41l-6.88.84-1.1,3.44-4.7.58,6.67-19.53,5.2-.64,6.67,17.89-4.75.58-1.1-3.17Zm-1.16-3.38l-2.29-6.57-2.26,7.13,4.54-.56Z"/><path class="c" d="m380.6,744.72l-4.49.55-7.51-10.62v11.54l-4.49.55v-18.71l4.49-.55,7.51,10.67v-11.59l4.49-.55v18.71Z"/><path class="c" d="m395.15,731.69v3.79l-11.55,1.42v-3.79l11.55-1.42Z"/><path class="c" d="m276.22,771.99c1.45.6,2.58,1.56,3.37,2.88.8,1.31,1.19,2.9,1.19,4.74s-.4,3.51-1.19,5.02c-.8,1.52-1.93,2.76-3.39,3.72-1.46.96-3.16,1.56-5.08,1.8l-6.91.85v-18.71l6.91-.85c1.94-.24,3.64-.06,5.09.55Zm-1.42,12.36c.95-1.06,1.42-2.45,1.42-4.17s-.47-3.01-1.42-3.85c-.95-.84-2.27-1.16-3.96-.95l-2.13.26v10.88l2.13-.26c1.7-.21,3.02-.84,3.96-1.9Z"/><path class="c" d="m292.71,787.5l-3.83-6.59-1.08.13v7.06l-4.49.55v-18.71l7.54-.92c1.45-.18,2.69-.07,3.71.32,1.02.39,1.79,1,2.3,1.84.51.83.76,1.8.76,2.91,0,1.24-.35,2.4-1.04,3.46-.69,1.06-1.71,1.88-3.06,2.45l4.25,6.89-5.07.62Zm-4.91-9.69l2.78-.34c.82-.1,1.44-.38,1.85-.84.41-.46.62-1.06.62-1.81s-.21-1.25-.62-1.6c-.41-.36-1.03-.49-1.85-.39l-2.78.34v4.64Z"/><path class="c" d="m304.38,785.03c-1.44-.64-2.59-1.64-3.44-3-.85-1.36-1.27-2.96-1.27-4.79s.42-3.53,1.27-5.09c.85-1.56,2-2.84,3.44-3.83,1.44-.99,3.03-1.6,4.77-1.81s3.32,0,4.77.64,2.58,1.64,3.41,2.99c.83,1.35,1.25,2.95,1.25,4.78s-.42,3.53-1.26,5.1-1.98,2.85-3.41,3.84c-1.43.99-3.02,1.6-4.75,1.81s-3.32,0-4.77-.64Zm8.3-5.44c.88-1.1,1.33-2.47,1.33-4.11s-.44-2.92-1.33-3.8-2.06-1.23-3.53-1.05c-1.49.18-2.67.82-3.56,1.9-.88,1.09-1.33,2.46-1.33,4.13s.44,2.92,1.33,3.79c.88.88,2.07,1.23,3.56,1.04,1.47-.18,2.65-.82,3.53-1.93Z"/><path class="c" d="m346.44,762.19l-4.81,19.3-5.44.67-2.94-11.95-3.05,12.69-5.44.67-4.67-18.14,4.81-.59,2.65,13.29,3.28-14.02,4.94-.61,3.15,13.23,2.68-13.95,4.83-.59Z"/><path class="c" d="m351.74,779.77c-1.07-.31-1.92-.87-2.56-1.66-.64-.79-.98-1.8-1.01-3.02l4.78-.59c.07.68.31,1.18.71,1.5.4.32.93.43,1.58.35.67-.08,1.19-.3,1.58-.66.38-.36.58-.81.58-1.36,0-.46-.15-.83-.46-1.09-.31-.26-.68-.47-1.13-.61-.45-.14-1.08-.28-1.9-.43-1.19-.23-2.16-.48-2.92-.76-.75-.28-1.4-.75-1.94-1.41-.54-.66-.81-1.58-.81-2.75,0-1.74.62-3.18,1.86-4.32s2.86-1.83,4.86-2.08c2.03-.25,3.67.04,4.91.88s1.91,2.12,2,3.87l-4.86.6c-.04-.6-.25-1.05-.66-1.35-.4-.3-.92-.41-1.55-.33-.54.07-.98.27-1.31.6-.33.33-.5.78-.5,1.33,0,.6.28,1.04.84,1.31.56.27,1.43.53,2.62.77,1.19.26,2.16.54,2.9.82.74.28,1.39.75,1.93,1.39.54.64.81,1.53.81,2.65s-.27,2.07-.8,3-1.31,1.72-2.32,2.36c-1.01.64-2.21,1.04-3.6,1.21-1.35.17-2.56.09-3.62-.22Z"/><path class="c" d="m375.53,777.33l-6.2-7.5v8.26l-4.49.55v-18.71l4.49-.55v8.21l6.15-8.96,5.28-.65-7.14,10.05,7.41,8.63-5.49.67Z"/><path class="c" d="m387.64,757.13v18.71l-4.49.55v-18.71l4.49-.55Z"/><path class="c" d="m179.11,475.6v3.65l-4.88.6v15.06l-4.49.55v-15.06l-4.88.6v-3.65l14.26-1.75Z"/><path class="c" d="m185.32,492.51c-1.44-.64-2.59-1.64-3.44-3-.85-1.36-1.27-2.96-1.27-4.79s.42-3.53,1.27-5.09c.85-1.56,2-2.84,3.44-3.83s3.03-1.6,4.77-1.81,3.32,0,4.77.64c1.44.64,2.58,1.64,3.41,2.99.83,1.36,1.25,2.95,1.25,4.78s-.42,3.53-1.26,5.1c-.84,1.57-1.98,2.85-3.41,3.84-1.44.99-3.02,1.6-4.75,1.81s-3.32,0-4.77-.64Zm8.3-5.44c.88-1.1,1.33-2.47,1.33-4.11s-.44-2.92-1.33-3.8-2.06-1.23-3.53-1.05c-1.49.18-2.67.82-3.56,1.9-.88,1.09-1.33,2.46-1.33,4.13s.44,2.92,1.33,3.8c.88.88,2.07,1.22,3.56,1.04,1.47-.18,2.65-.82,3.53-1.93Z"/><path class="c" d="m211.41,490.34l-3.83-6.59-1.08.13v7.06l-4.49.55v-18.71l7.54-.92c1.45-.18,2.69-.07,3.71.32,1.02.39,1.79,1,2.3,1.84s.76,1.8.76,2.91c0,1.24-.35,2.4-1.04,3.46-.69,1.06-1.71,1.88-3.06,2.46l4.25,6.89-5.07.62Zm-4.91-9.69l2.78-.34c.82-.1,1.44-.38,1.85-.84.41-.46.62-1.06.62-1.81s-.21-1.24-.62-1.6c-.41-.36-1.03-.49-1.85-.39l-2.78.34v4.64Z"/><path class="c" d="m223.54,470.14v11.2c0,1.12.27,1.95.81,2.49.54.54,1.34.74,2.39.61,1.05-.13,1.86-.53,2.42-1.2.56-.67.84-1.57.84-2.69v-11.2l4.49-.55v11.17c0,1.67-.35,3.13-1.05,4.37-.7,1.24-1.64,2.23-2.82,2.96-1.18.73-2.5,1.19-3.95,1.36-1.45.18-2.75.05-3.9-.39s-2.05-1.2-2.72-2.28c-.67-1.08-1-2.46-1-4.13v-11.17l4.49-.55Z"/><path class="c" d="m254.13,485.1l-4.49.55-7.51-10.62v11.54l-4.49.55v-18.71l4.49-.55,7.51,10.67v-11.59l4.49-.55v18.71Zm-5.2-21.83l-6.33,3.47v-3.14l6.33-3.87v3.55Z"/><path class="c" d="m260.44,483.84c-1.07-.31-1.92-.87-2.56-1.66-.64-.79-.98-1.8-1.01-3.02l4.78-.59c.07.68.31,1.19.71,1.5.4.32.93.43,1.58.35.67-.08,1.19-.3,1.58-.66.38-.36.58-.81.58-1.36,0-.46-.15-.83-.46-1.09-.31-.26-.68-.47-1.13-.61-.45-.14-1.08-.28-1.9-.43-1.19-.23-2.16-.48-2.92-.76-.75-.28-1.4-.75-1.94-1.42-.54-.66-.81-1.58-.81-2.75,0-1.74.62-3.18,1.87-4.32,1.24-1.14,2.86-1.83,4.86-2.08,2.03-.25,3.67.04,4.91.88,1.24.83,1.91,2.12,2,3.87l-4.86.6c-.04-.6-.25-1.05-.66-1.35-.4-.3-.92-.41-1.55-.33-.54.07-.98.27-1.31.6-.33.33-.5.78-.5,1.33,0,.6.28,1.04.84,1.31.56.27,1.43.53,2.63.77,1.19.26,2.16.54,2.9.82.74.28,1.39.75,1.93,1.39.54.64.81,1.53.81,2.65s-.27,2.07-.8,3-1.31,1.72-2.32,2.36c-1.02.64-2.21,1.04-3.6,1.21-1.35.17-2.56.09-3.62-.22Z"/><path class="c" d="m284.23,481.4l-6.2-7.5v8.26l-4.49.55v-18.71l4.49-.55v8.21l6.15-8.96,5.28-.65-7.14,10.05,7.41,8.63-5.49.67Z"/><path class="c" d="m296.33,461.2v18.71l-4.49.55v-18.71l4.49-.55Z"/></svg>