<?xml version="1.0" encoding="utf-8"?>
<!-- Generator: Adobe Illustrator 27.9.0, SVG Export Plug-In . SVG Version: 6.00 Build 0)  -->
<svg version="1.1" id="Warstwa_1" xmlns="http://www.w3.org/2000/svg" xmlns:xlink="http://www.w3.org/1999/xlink" x="0px" y="0px"
	 viewBox="0 0 1080 1080" enable-background="new 0 0 1080 1080" xml:space="preserve">
<g>
	<g>
		<g>
			<path fill="#EC2746" d="M1795.88,210.24c-0.3-0.53-0.74-0.91-1.31-1.14c-0.57-0.23-1.24-0.3-2-0.2
				c-1.33,0.16-2.39,0.74-3.19,1.72c-0.8,0.98-1.2,2.21-1.2,3.69c0,1.58,0.42,2.75,1.26,3.54c0.84,0.78,2,1.08,3.47,0.9
				c1.01-0.12,1.86-0.49,2.56-1.09c0.7-0.6,1.2-1.41,1.52-2.43l-5.21,0.64v-3.07l8.93-1.1v3.87c-0.31,1.08-0.82,2.11-1.55,3.09
				c-0.73,0.98-1.65,1.82-2.77,2.51c-1.12,0.69-2.38,1.12-3.79,1.29c-1.66,0.2-3.15,0.02-4.45-0.56c-1.3-0.58-2.32-1.48-3.05-2.71
				c-0.73-1.23-1.09-2.68-1.09-4.37c0-1.69,0.36-3.24,1.09-4.65c0.73-1.41,1.74-2.57,3.04-3.47c1.3-0.9,2.77-1.45,4.44-1.65
				c2.02-0.25,3.72,0.04,5.1,0.86c1.38,0.82,2.3,2.08,2.75,3.78L1795.88,210.24z"/>
			<path fill="#EC2746" d="M1811.58,220.01l-3.5-6.03l-0.98,0.12v6.46l-4.1,0.5v-17.1l6.89-0.85c1.33-0.16,2.46-0.07,3.4,0.29
				c0.94,0.36,1.64,0.92,2.1,1.68c0.47,0.76,0.7,1.65,0.7,2.65c0,1.14-0.32,2.19-0.95,3.16c-0.63,0.97-1.56,1.72-2.8,2.24l3.89,6.3
				L1811.58,220.01z M1807.09,211.16l2.54-0.31c0.75-0.09,1.32-0.35,1.69-0.77c0.38-0.42,0.56-0.97,0.56-1.65
				c0-0.65-0.19-1.14-0.56-1.47c-0.38-0.33-0.94-0.44-1.69-0.35l-2.54,0.31V211.16z"/>
			<path fill="#EC2746" d="M1822.67,201.54v10.23c0,1.02,0.25,1.78,0.74,2.27c0.5,0.49,1.22,0.68,2.18,0.56
				c0.96-0.12,1.7-0.48,2.21-1.1c0.51-0.61,0.77-1.43,0.77-2.46v-10.23l4.1-0.5v10.21c0,1.53-0.32,2.86-0.96,3.99
				c-0.64,1.13-1.5,2.04-2.58,2.7c-1.08,0.67-2.28,1.08-3.61,1.25c-1.33,0.16-2.52,0.05-3.56-0.35c-1.05-0.4-1.88-1.09-2.48-2.08
				c-0.61-0.99-0.91-2.25-0.91-3.77v-10.21L1822.67,201.54z"/>
			<path fill="#EC2746" d="M1846.52,199.69c1.33,0.55,2.36,1.43,3.08,2.63c0.73,1.2,1.09,2.65,1.09,4.34c0,1.67-0.36,3.2-1.09,4.59
				c-0.73,1.39-1.76,2.52-3.1,3.4c-1.34,0.88-2.88,1.43-4.64,1.64l-6.31,0.78v-17.1l6.31-0.78
				C1843.64,198.97,1845.2,199.14,1846.52,199.69z M1845.23,210.98c0.86-0.97,1.3-2.24,1.3-3.81c0-1.58-0.43-2.75-1.3-3.52
				c-0.86-0.77-2.07-1.06-3.62-0.87l-1.94,0.24v9.94l1.94-0.24C1843.15,212.53,1844.36,211.95,1845.23,210.98z"/>
			<path fill="#EC2746" d="M1857.37,210.97l7.25-0.89v3.41l-11.9,1.46v-3.17l7.2-11.41l-7.2,0.88v-3.41l11.9-1.46v3.17
				L1857.37,210.97z"/>
			<path fill="#EC2746" d="M1871.41,195.56v17.1l-4.1,0.5v-17.1L1871.41,195.56z"/>
			<path fill="#EC2746" d="M1890.4,212.91v2.34c-0.77,0.34-1.56,0.56-2.38,0.66c-1.04,0.13-1.89-0.01-2.54-0.42
				c-0.66-0.41-0.98-1.07-0.98-2c0-0.5,0.1-0.98,0.31-1.41c0.21-0.44,0.55-0.88,1.03-1.33l-0.96-2.76l-6.29,0.77l-1.01,3.14
				l-4.3,0.53l6.1-17.85l4.75-0.58l6.1,16.35l-1.13,0.67c-0.59,0.35-1,0.66-1.24,0.93c-0.23,0.27-0.35,0.55-0.35,0.82
				c0,0.28,0.09,0.48,0.28,0.6c0.18,0.12,0.45,0.16,0.8,0.12C1889.11,213.44,1889.71,213.24,1890.4,212.91z M1883.82,204.9
				l-2.09-6.01l-2.06,6.51L1883.82,204.9z"/>
			<path fill="#EC2746" d="M1903.04,192.75c1.33,0.55,2.36,1.43,3.08,2.63c0.73,1.2,1.09,2.65,1.09,4.34c0,1.67-0.36,3.2-1.09,4.59
				c-0.73,1.39-1.76,2.52-3.1,3.4c-1.34,0.88-2.88,1.43-4.64,1.64l-6.31,0.78v-17.1l6.31-0.78
				C1900.16,192.03,1901.72,192.2,1903.04,192.75z M1901.75,204.04c0.86-0.97,1.3-2.24,1.3-3.81c0-1.58-0.43-2.75-1.3-3.52
				c-0.86-0.77-2.07-1.06-3.62-0.87l-1.94,0.24v9.94l1.94-0.24C1899.68,205.59,1900.88,205.01,1901.75,204.04z"/>
			<path fill="#EC2746" d="M1913.89,204.03l7.25-0.89v3.41l-11.9,1.46v-3.17l7.2-11.41l-7.2,0.88v-3.41l11.9-1.46v3.17
				L1913.89,204.03z"/>
			<path fill="#EC2746" d="M1933.6,205.03l-5.67-6.86v7.55l-4.1,0.5v-17.1l4.1-0.5v7.5l5.62-8.19l4.82-0.59l-6.53,9.18l6.77,7.89
				L1933.6,205.03z"/>
			<path fill="#EC2746" d="M1944.66,186.57v17.1l-4.1,0.5v-17.1L1944.66,186.57z"/>
		</g>
		<g>
			<path fill="#EC2746" d="M1491.76,386.01c0.79-1.54,1.89-2.81,3.3-3.79c1.41-0.98,3.01-1.58,4.79-1.8
				c2.19-0.27,4.06,0.09,5.62,1.07c1.56,0.98,2.6,2.45,3.12,4.41l-4.94,0.61c-0.37-0.74-0.89-1.27-1.56-1.59
				c-0.67-0.33-1.44-0.44-2.3-0.33c-1.38,0.17-2.5,0.8-3.36,1.88c-0.86,1.08-1.29,2.44-1.29,4.08c0,1.64,0.43,2.89,1.29,3.76
				c0.86,0.87,1.98,1.22,3.36,1.05c0.86-0.1,1.62-0.4,2.3-0.89c0.67-0.49,1.19-1.15,1.56-1.98l4.94-0.61
				c-0.53,2.09-1.57,3.81-3.12,5.17c-1.56,1.36-3.43,2.17-5.62,2.44c-1.79,0.22-3.38,0.01-4.79-0.62c-1.41-0.64-2.51-1.62-3.3-2.97
				c-0.79-1.34-1.18-2.94-1.18-4.79C1490.58,389.26,1490.97,387.56,1491.76,386.01z"/>
			<path fill="#EC2746" d="M1527.31,377.26v18.71l-4.49,0.55v-7.7l-6.99,0.86v7.7l-4.49,0.55v-18.71l4.49-0.55V386l6.99-0.86v-7.33
				L1527.31,377.26z"/>
			<path fill="#EC2746" d="M1535.03,379.97v3.78l6.01-0.74v3.52l-6.01,0.74v4.1l6.8-0.83v3.65l-11.29,1.39v-18.71l11.29-1.39v3.65
				L1535.03,379.97z"/>
			<path fill="#EC2746" d="M1555.46,389.05v3.47l-10.37,1.27v-7.25l-1.71,0.72v-3.84l1.71-0.72v-7.62l4.49-0.55v6.26l2.18-0.93v3.84
				l-2.18,0.93v5.14L1555.46,389.05z"/>
			<path fill="#EC2746" d="M1578.36,371v18.71l-4.49,0.55v-11.22l-4.12,11.73l-3.62,0.44l-4.15-10.74v11.25l-4.49,0.55v-18.71
				l5.3-0.65l5.17,12.32l5.12-13.58L1578.36,371z"/>
			<path fill="#EC2746" d="M1586.08,370.05v18.71l-4.49,0.55V370.6L1586.08,370.05z"/>
			<path fill="#EC2746" d="M1605.83,386.33l-4.49,0.55l-7.51-10.62v11.54l-4.49,0.55v-18.71l4.49-0.55l7.51,10.67v-11.59l4.49-0.55
				V386.33z M1600.63,364.5l-6.33,3.47v-3.15l6.33-3.87V364.5z"/>
			<path fill="#EC2746" d="M1612.13,385.08c-1.07-0.31-1.92-0.87-2.56-1.66c-0.64-0.79-0.98-1.8-1.01-3.02l4.78-0.59
				c0.07,0.68,0.31,1.19,0.71,1.5c0.4,0.32,0.93,0.43,1.58,0.35c0.67-0.08,1.19-0.3,1.58-0.66c0.38-0.36,0.58-0.81,0.58-1.36
				c0-0.46-0.15-0.83-0.46-1.09c-0.31-0.26-0.68-0.47-1.13-0.61c-0.45-0.14-1.08-0.28-1.9-0.43c-1.19-0.23-2.16-0.48-2.92-0.76
				c-0.75-0.28-1.4-0.75-1.94-1.41c-0.54-0.66-0.81-1.58-0.81-2.75c0-1.74,0.62-3.18,1.86-4.32c1.24-1.14,2.86-1.83,4.86-2.08
				c2.03-0.25,3.67,0.04,4.91,0.88c1.24,0.83,1.91,2.12,2,3.87l-4.86,0.6c-0.04-0.6-0.25-1.05-0.66-1.35
				c-0.4-0.3-0.92-0.41-1.55-0.33c-0.54,0.07-0.98,0.27-1.31,0.6c-0.33,0.33-0.5,0.78-0.5,1.33c0,0.6,0.28,1.04,0.84,1.31
				c0.56,0.27,1.43,0.53,2.62,0.77c1.19,0.26,2.16,0.54,2.9,0.82c0.74,0.28,1.39,0.75,1.93,1.39c0.54,0.64,0.81,1.53,0.81,2.65
				c0,1.07-0.27,2.07-0.8,3c-0.53,0.94-1.31,1.72-2.32,2.36c-1.01,0.64-2.21,1.04-3.6,1.21
				C1614.4,385.47,1613.2,385.39,1612.13,385.08z"/>
			<path fill="#EC2746" d="M1635.92,382.64l-6.2-7.5v8.26l-4.49,0.55v-18.71l4.49-0.55v8.21l6.15-8.96l5.28-0.65l-7.14,10.05
				l7.41,8.63L1635.92,382.64z"/>
			<path fill="#EC2746" d="M1648.03,362.44v18.71l-4.49,0.55v-18.71L1648.03,362.44z"/>
		</g>
		<g>
			<path fill="#EC2746" d="M1758.71,382.22l-4.81,19.3l-5.44,0.67l-2.94-11.95l-3.05,12.69l-5.44,0.67l-4.67-18.14l4.81-0.59
				l2.65,13.29l3.28-14.02l4.94-0.61l3.15,13.23l2.68-13.95L1758.71,382.22z"/>
			<path fill="#EC2746" d="M1778.48,401.33v2.56c-0.84,0.37-1.71,0.61-2.6,0.72c-1.14,0.14-2.07-0.01-2.78-0.46
				c-0.72-0.44-1.08-1.17-1.08-2.19c0-0.55,0.11-1.07,0.34-1.55c0.23-0.48,0.61-0.97,1.13-1.46l-1.05-3.02l-6.88,0.85l-1.1,3.44
				l-4.7,0.58l6.67-19.53l5.2-0.64l6.67,17.89l-1.23,0.74c-0.65,0.38-1.1,0.72-1.35,1.02c-0.25,0.3-0.38,0.6-0.38,0.9
				c0,0.3,0.1,0.52,0.3,0.66c0.2,0.14,0.5,0.18,0.88,0.13C1777.07,401.9,1777.73,401.69,1778.48,401.33z M1771.29,392.56l-2.29-6.57
				l-2.26,7.13L1771.29,392.56z"/>
			<path fill="#EC2746" d="M1794.05,388.61c0.65,0.76,0.97,1.69,0.97,2.77c0,1.56-0.54,2.87-1.61,3.92
				c-1.08,1.05-2.58,1.69-4.5,1.93l-8.59,1.05v-18.71l8.3-1.02c1.87-0.23,3.34,0.03,4.4,0.77c1.06,0.74,1.59,1.86,1.59,3.35
				c0,1.1-0.28,2.05-0.85,2.85c-0.57,0.8-1.33,1.4-2.27,1.8C1792.55,387.41,1793.41,387.84,1794.05,388.61z M1784.81,386.58
				l2.94-0.36c0.73-0.09,1.3-0.32,1.69-0.7c0.39-0.38,0.59-0.89,0.59-1.52s-0.2-1.1-0.59-1.39c-0.39-0.29-0.96-0.39-1.69-0.3
				l-2.94,0.36V386.58z M1789.86,392.91c0.41-0.4,0.62-0.92,0.62-1.58c0-0.66-0.21-1.15-0.64-1.47c-0.43-0.32-1.02-0.44-1.77-0.34
				l-3.26,0.4v4.13l3.31-0.41C1788.87,393.55,1789.45,393.3,1789.86,392.91z"/>
			<path fill="#EC2746" d="M1807.03,395l-3.83-6.59l-1.08,0.13v7.06l-4.49,0.55v-18.71l7.54-0.93c1.45-0.18,2.69-0.07,3.72,0.32
				c1.02,0.39,1.79,1,2.3,1.84c0.51,0.83,0.76,1.8,0.76,2.9c0,1.24-0.35,2.4-1.04,3.46c-0.69,1.06-1.71,1.88-3.06,2.45l4.25,6.89
				L1807.03,395z M1802.12,385.31l2.78-0.34c0.82-0.1,1.44-0.38,1.85-0.84c0.41-0.46,0.62-1.06,0.62-1.81c0-0.71-0.21-1.24-0.62-1.6
				c-0.41-0.36-1.03-0.49-1.85-0.39l-2.78,0.34V385.31z"/>
			<path fill="#EC2746" d="M1819.52,389.73l7.93-0.97v3.73l-13.02,1.6v-3.47l7.88-12.48l-7.88,0.97v-3.73l13.02-1.6v3.46
				L1819.52,389.73z"/>
			<path fill="#EC2746" d="M1834.89,376.52v3.78l6.01-0.74v3.52l-6.01,0.74v4.1l6.8-0.83v3.65l-11.29,1.39v-18.71l11.29-1.39v3.65
				L1834.89,376.52z"/>
			<path fill="#EC2746" d="M1847.65,389.53c-1.07-0.31-1.92-0.87-2.56-1.66c-0.64-0.79-0.98-1.8-1.01-3.02l4.78-0.59
				c0.07,0.68,0.31,1.18,0.71,1.5c0.4,0.32,0.93,0.43,1.58,0.35c0.67-0.08,1.19-0.3,1.58-0.66c0.38-0.36,0.58-0.81,0.58-1.36
				c0-0.46-0.15-0.82-0.46-1.09c-0.31-0.26-0.68-0.47-1.13-0.61c-0.45-0.14-1.08-0.28-1.9-0.43c-1.19-0.23-2.16-0.48-2.92-0.76
				c-0.75-0.28-1.4-0.75-1.94-1.41c-0.54-0.66-0.81-1.58-0.81-2.75c0-1.74,0.62-3.18,1.86-4.32s2.86-1.83,4.86-2.08
				c2.03-0.25,3.67,0.04,4.91,0.88c1.24,0.83,1.91,2.12,2,3.87l-4.86,0.6c-0.04-0.6-0.25-1.05-0.66-1.35
				c-0.4-0.3-0.92-0.41-1.55-0.33c-0.54,0.07-0.98,0.27-1.31,0.6c-0.33,0.33-0.5,0.78-0.5,1.33c0,0.6,0.28,1.04,0.84,1.31
				c0.56,0.27,1.43,0.53,2.62,0.77c1.19,0.26,2.16,0.54,2.9,0.82c0.74,0.28,1.39,0.75,1.93,1.39c0.54,0.64,0.81,1.53,0.81,2.65
				c0,1.07-0.27,2.07-0.8,3c-0.53,0.94-1.31,1.72-2.32,2.36c-1.01,0.64-2.21,1.04-3.6,1.21
				C1849.92,389.92,1848.72,389.84,1847.65,389.53z"/>
			<path fill="#EC2746" d="M1871.44,387.09l-6.2-7.5v8.26l-4.49,0.55v-18.71l4.49-0.55v8.21l6.15-8.96l5.28-0.65l-7.14,10.05
				l7.41,8.63L1871.44,387.09z"/>
			<path fill="#EC2746" d="M1883.54,366.89v18.71l-4.49,0.55v-18.71L1883.54,366.89z"/>
		</g>
		<g>
			<path fill="#EC2746" d="M2055.08,395.16c0.59,0.7,0.89,1.54,0.89,2.53c0,1.43-0.49,2.62-1.48,3.58
				c-0.98,0.96-2.36,1.54-4.12,1.76l-7.85,0.96v-17.1l7.58-0.93c1.71-0.21,3.05,0.02,4.02,0.7c0.97,0.68,1.45,1.7,1.45,3.06
				c0,1.01-0.26,1.88-0.78,2.6c-0.52,0.73-1.21,1.28-2.08,1.64C2053.7,394.07,2054.49,394.46,2055.08,395.16z M2046.63,393.31
				l2.69-0.33c0.67-0.08,1.19-0.3,1.55-0.64c0.36-0.34,0.54-0.81,0.54-1.39s-0.18-1.01-0.54-1.27c-0.36-0.26-0.88-0.36-1.55-0.27
				l-2.69,0.33V393.31z M2051.25,399.09c0.38-0.36,0.56-0.84,0.56-1.45c0-0.6-0.2-1.05-0.59-1.34c-0.39-0.29-0.93-0.4-1.62-0.31
				l-2.98,0.37v3.78l3.02-0.37C2050.34,399.68,2050.87,399.45,2051.25,399.09z"/>
			<path fill="#EC2746" d="M2066.93,401l-3.5-6.03l-0.98,0.12v6.46l-4.1,0.5v-17.1l6.89-0.85c1.33-0.16,2.46-0.07,3.4,0.29
				c0.94,0.36,1.64,0.92,2.1,1.68c0.46,0.76,0.7,1.65,0.7,2.66c0,1.14-0.32,2.19-0.95,3.16c-0.63,0.97-1.56,1.72-2.8,2.24l3.89,6.3
				L2066.93,401z M2062.44,392.15l2.54-0.31c0.75-0.09,1.31-0.35,1.69-0.77c0.38-0.42,0.57-0.97,0.57-1.65
				c0-0.65-0.19-1.14-0.57-1.47c-0.38-0.33-0.94-0.44-1.69-0.35l-2.54,0.31V392.15z"/>
			<path fill="#EC2746" d="M2077.6,398.74c-1.32-0.59-2.37-1.5-3.14-2.74c-0.78-1.24-1.16-2.7-1.16-4.38c0-1.67,0.39-3.22,1.16-4.65
				c0.78-1.43,1.82-2.6,3.14-3.5c1.32-0.91,2.77-1.46,4.36-1.66c1.58-0.19,3.04,0,4.36,0.59c1.32,0.59,2.36,1.5,3.12,2.74
				c0.76,1.24,1.14,2.69,1.14,4.37c0,1.67-0.38,3.23-1.15,4.66c-0.77,1.43-1.81,2.61-3.12,3.51c-1.31,0.91-2.76,1.46-4.34,1.65
				C2080.37,399.52,2078.92,399.33,2077.6,398.74z M2085.19,393.77c0.81-1.01,1.21-2.26,1.21-3.75c0-1.51-0.4-2.67-1.21-3.47
				c-0.81-0.8-1.89-1.12-3.23-0.96c-1.36,0.17-2.44,0.75-3.25,1.74c-0.81,0.99-1.21,2.25-1.21,3.78c0,1.51,0.4,2.67,1.21,3.47
				c0.81,0.8,1.89,1.12,3.25,0.95C2083.3,395.36,2084.38,394.78,2085.19,393.77z"/>
			<path fill="#EC2746" d="M2103.82,380.44c1.33,0.55,2.36,1.43,3.08,2.63c0.73,1.2,1.09,2.65,1.09,4.34c0,1.67-0.36,3.2-1.09,4.59
				c-0.73,1.39-1.76,2.52-3.1,3.4c-1.34,0.88-2.88,1.43-4.64,1.64l-6.31,0.78v-17.1l6.31-0.78
				C2100.94,379.72,2102.49,379.89,2103.82,380.44z M2102.53,391.74c0.86-0.97,1.3-2.24,1.3-3.81c0-1.58-0.43-2.75-1.3-3.52
				c-0.86-0.77-2.07-1.06-3.62-0.87l-1.94,0.24v9.94l1.94-0.24C2100.45,393.28,2101.66,392.7,2102.53,391.74z"/>
			<path fill="#EC2746" d="M2125.37,393.83l-4.1,0.5l-6.86-9.71v10.55l-4.1,0.5v-17.1l4.1-0.5l6.86,9.75v-10.6l4.1-0.5V393.83z"/>
			<path fill="#EC2746" d="M2132.45,375.86v17.1l-4.1,0.5v-17.1L2132.45,375.86z"/>
			<path fill="#EC2746" d="M2135.82,379.45c0.72-1.41,1.72-2.57,3.01-3.46c1.29-0.9,2.75-1.45,4.38-1.65c2-0.25,3.71,0.08,5.14,0.98
				c1.42,0.9,2.38,2.24,2.86,4.03l-4.51,0.55c-0.34-0.67-0.81-1.16-1.43-1.46c-0.62-0.3-1.32-0.4-2.1-0.3
				c-1.26,0.15-2.29,0.73-3.07,1.72c-0.78,0.99-1.18,2.23-1.18,3.73c0,1.49,0.39,2.64,1.18,3.44c0.78,0.8,1.81,1.12,3.07,0.96
				c0.78-0.1,1.48-0.37,2.1-0.82c0.62-0.45,1.09-1.05,1.43-1.81l4.51-0.55c-0.48,1.91-1.43,3.49-2.86,4.72
				c-1.42,1.24-3.14,1.98-5.14,2.23c-1.63,0.2-3.09,0.01-4.38-0.57c-1.29-0.58-2.29-1.49-3.01-2.71c-0.72-1.23-1.08-2.68-1.08-4.37
				C2134.74,382.41,2135.1,380.86,2135.82,379.45z"/>
			<path fill="#EC2746" d="M2163.49,389.15l-5.67-6.86v7.55l-4.1,0.5v-17.1l4.1-0.5v7.5l5.62-8.19l4.82-0.59l-6.53,9.18l6.77,7.89
				L2163.49,389.15z"/>
			<path fill="#EC2746" d="M2174.55,370.69v17.1l-4.1,0.5v-17.1L2174.55,370.69z"/>
		</g>
		<g>
			<path fill="#EC2746" d="M1796.5,549.63c-0.28-0.49-0.68-0.84-1.2-1.05c-0.52-0.21-1.13-0.27-1.84-0.19
				c-1.22,0.15-2.2,0.68-2.93,1.58c-0.73,0.9-1.1,2.03-1.1,3.39c0,1.45,0.39,2.53,1.16,3.25c0.77,0.72,1.83,1,3.18,0.83
				c0.93-0.11,1.71-0.45,2.35-1.01c0.64-0.55,1.11-1.3,1.4-2.23l-4.78,0.59v-2.82l8.2-1.01v3.56c-0.28,0.99-0.75,1.93-1.42,2.84
				c-0.67,0.9-1.52,1.67-2.55,2.3s-2.19,1.03-3.48,1.19c-1.53,0.19-2.89,0.01-4.09-0.52c-1.2-0.53-2.13-1.36-2.8-2.49
				c-0.67-1.13-1-2.46-1-4.02c0-1.55,0.33-2.98,1-4.27s1.6-2.36,2.79-3.18c1.19-0.82,2.55-1.33,4.08-1.52
				c1.85-0.23,3.41,0.04,4.68,0.79c1.27,0.75,2.11,1.91,2.52,3.47L1796.5,549.63z"/>
			<path fill="#EC2746" d="M1806.34,558.29c-1.21-0.54-2.17-1.38-2.89-2.52c-0.71-1.14-1.07-2.48-1.07-4.02
				c0-1.54,0.36-2.96,1.07-4.27c0.71-1.31,1.67-2.38,2.89-3.22c1.21-0.83,2.55-1.34,4-1.52c1.45-0.18,2.79,0,4,0.54
				c1.21,0.54,2.17,1.38,2.87,2.51c0.7,1.14,1.05,2.47,1.05,4.01c0,1.54-0.35,2.96-1.06,4.28c-0.71,1.32-1.66,2.39-2.87,3.23
				s-2.54,1.34-3.99,1.52C1808.89,559.01,1807.56,558.83,1806.34,558.29z M1813.31,553.72c0.74-0.93,1.11-2.08,1.11-3.45
				c0-1.39-0.37-2.45-1.11-3.19c-0.74-0.74-1.73-1.03-2.96-0.88c-1.25,0.15-2.25,0.69-2.99,1.6c-0.74,0.91-1.11,2.07-1.11,3.47
				c0,1.39,0.37,2.45,1.11,3.19c0.74,0.74,1.74,1.03,2.99,0.88C1811.58,555.19,1812.57,554.65,1813.31,553.72z"/>
			<path fill="#EC2746" d="M1824.12,554.03l4.94-0.61v2.95l-8.71,1.07v-15.71l3.77-0.46V554.03z"/>
			<path fill="#EC2746" d="M1834.57,539.99v9.4c0,0.94,0.23,1.64,0.68,2.09c0.46,0.45,1.12,0.62,2.01,0.51
				c0.88-0.11,1.56-0.45,2.03-1.01s0.71-1.32,0.71-2.26v-9.4l3.77-0.46v9.38c0,1.4-0.29,2.62-0.88,3.67
				c-0.59,1.04-1.38,1.87-2.37,2.48c-0.99,0.61-2.1,1-3.32,1.15c-1.22,0.15-2.31,0.04-3.27-0.32c-0.96-0.37-1.72-1-2.28-1.91
				c-0.56-0.91-0.84-2.06-0.84-3.47v-9.38L1834.57,539.99z"/>
			<path fill="#EC2746" d="M1857.94,546.13c0.54,0.64,0.81,1.42,0.81,2.33c0,1.31-0.45,2.41-1.36,3.29
				c-0.9,0.88-2.16,1.42-3.78,1.62l-7.21,0.88v-15.71l6.97-0.86c1.57-0.19,2.8,0.02,3.69,0.64c0.89,0.62,1.33,1.56,1.33,2.81
				c0,0.92-0.24,1.72-0.72,2.39c-0.48,0.67-1.11,1.17-1.91,1.51C1856.67,545.12,1857.4,545.49,1857.94,546.13z M1850.18,544.43
				l2.47-0.3c0.62-0.08,1.09-0.27,1.42-0.59c0.33-0.32,0.5-0.74,0.5-1.28s-0.17-0.93-0.5-1.17c-0.33-0.24-0.8-0.33-1.42-0.25
				l-2.47,0.3V544.43z M1854.42,549.74c0.34-0.33,0.52-0.78,0.52-1.33c0-0.55-0.18-0.96-0.54-1.23c-0.36-0.27-0.86-0.36-1.49-0.29
				l-2.73,0.34v3.47l2.78-0.34C1853.59,550.27,1854.08,550.07,1854.42,549.74z"/>
			<path fill="#EC2746" d="M1863.49,551.74c-0.9-0.26-1.61-0.73-2.15-1.39c-0.54-0.66-0.82-1.51-0.85-2.54l4.01-0.49
				c0.06,0.58,0.26,1,0.6,1.26c0.34,0.26,0.78,0.36,1.32,0.3c0.56-0.07,1-0.25,1.32-0.55c0.32-0.3,0.48-0.68,0.48-1.14
				c0-0.39-0.13-0.69-0.39-0.92c-0.26-0.22-0.57-0.39-0.95-0.51s-0.91-0.24-1.6-0.36c-1-0.19-1.82-0.4-2.45-0.64
				c-0.63-0.24-1.18-0.63-1.63-1.19c-0.46-0.55-0.68-1.33-0.68-2.31c0-1.46,0.52-2.67,1.56-3.63c1.04-0.96,2.4-1.54,4.08-1.74
				c1.71-0.21,3.08,0.04,4.12,0.74c1.04,0.7,1.6,1.78,1.68,3.25l-4.08,0.5c-0.03-0.5-0.21-0.88-0.55-1.13
				c-0.34-0.25-0.77-0.34-1.3-0.28c-0.46,0.06-0.82,0.22-1.1,0.5c-0.28,0.28-0.42,0.65-0.42,1.11c0,0.51,0.24,0.87,0.71,1.1
				c0.47,0.23,1.21,0.44,2.2,0.65c1,0.22,1.81,0.45,2.44,0.69c0.62,0.24,1.17,0.62,1.62,1.17c0.46,0.54,0.68,1.28,0.68,2.22
				c0,0.9-0.22,1.74-0.67,2.52c-0.45,0.79-1.1,1.45-1.95,1.98s-1.86,0.88-3.02,1.02C1865.4,552.07,1864.39,552.01,1863.49,551.74z"
				/>
			<path fill="#EC2746" d="M1883.47,549.69l-5.2-6.3v6.94l-3.77,0.46v-15.71l3.77-0.46v6.89l5.16-7.53l4.43-0.54l-6,8.43l6.22,7.25
				L1883.47,549.69z"/>
			<path fill="#EC2746" d="M1893.18,547.63c-1.21-0.54-2.18-1.38-2.89-2.52c-0.71-1.14-1.07-2.48-1.07-4.02
				c0-1.54,0.36-2.96,1.07-4.27c0.71-1.31,1.67-2.38,2.89-3.22c1.21-0.83,2.55-1.34,4-1.52s2.79,0,4,0.54s2.17,1.38,2.87,2.51
				s1.05,2.47,1.05,4.01c0,1.54-0.35,2.96-1.06,4.28s-1.66,2.39-2.87,3.23c-1.21,0.83-2.53,1.34-3.99,1.52
				S1894.39,548.17,1893.18,547.63z M1900.14,543.06c0.74-0.93,1.11-2.08,1.11-3.45c0-1.39-0.37-2.45-1.11-3.19
				c-0.74-0.74-1.73-1.03-2.96-0.88c-1.25,0.15-2.25,0.69-2.99,1.6c-0.74,0.91-1.11,2.07-1.11,3.47c0,1.39,0.37,2.45,1.11,3.19
				c0.74,0.74,1.74,1.03,2.99,0.88C1898.41,544.53,1899.4,543.99,1900.14,543.06z"/>
			<path fill="#EC2746" d="M1916.67,536.17v3.18l-9.7,1.19v-3.18L1916.67,536.17z"/>
			<path fill="#EC2746" d="M1795.71,577.88v3.18l-9.7,1.19v-3.18L1795.71,577.88z"/>
			<path fill="#EC2746" d="M1809.09,570.96c1.22,0.51,2.16,1.31,2.83,2.42c0.67,1.1,1,2.43,1,3.98c0,1.54-0.33,2.94-1,4.22
				c-0.67,1.28-1.62,2.32-2.84,3.12c-1.23,0.81-2.65,1.31-4.26,1.51l-5.8,0.71v-15.71l5.8-0.71
				C1806.44,570.29,1807.87,570.45,1809.09,570.96z M1807.9,581.33c0.79-0.89,1.19-2.06,1.19-3.5c0-1.45-0.4-2.52-1.19-3.23
				c-0.79-0.71-1.9-0.97-3.33-0.8l-1.79,0.22v9.13l1.79-0.22C1806,582.75,1807.1,582.22,1807.9,581.33z"/>
			<path fill="#EC2746" d="M1818.36,583.67c-1.21-0.54-2.17-1.38-2.89-2.52s-1.07-2.48-1.07-4.02c0-1.54,0.36-2.96,1.07-4.27
				c0.71-1.31,1.67-2.38,2.89-3.22s2.55-1.34,4-1.52s2.79,0,4,0.54c1.21,0.54,2.17,1.38,2.87,2.51c0.7,1.14,1.05,2.47,1.05,4.01
				c0,1.54-0.35,2.96-1.06,4.28c-0.71,1.32-1.66,2.39-2.87,3.23c-1.2,0.83-2.53,1.34-3.99,1.52S1819.57,584.21,1818.36,583.67z
				 M1825.32,579.1c0.74-0.93,1.11-2.08,1.11-3.45c0-1.39-0.37-2.45-1.11-3.19s-1.73-1.03-2.96-0.88c-1.25,0.15-2.25,0.69-2.99,1.6
				c-0.74,0.91-1.11,2.07-1.11,3.47c0,1.39,0.37,2.45,1.11,3.19c0.74,0.74,1.74,1.03,2.99,0.88
				C1823.59,580.56,1824.58,580.02,1825.32,579.1z"/>
			<path fill="#EC2746" d="M1843.9,574.7c0.54,0.64,0.81,1.42,0.81,2.33c0,1.31-0.45,2.41-1.36,3.29c-0.9,0.88-2.16,1.42-3.78,1.62
				l-7.21,0.88v-15.71l6.97-0.85c1.57-0.19,2.8,0.02,3.69,0.64c0.89,0.62,1.33,1.56,1.33,2.81c0,0.92-0.24,1.72-0.72,2.39
				c-0.48,0.67-1.11,1.17-1.91,1.51C1842.63,573.7,1843.35,574.06,1843.9,574.7z M1836.14,573l2.47-0.3
				c0.62-0.08,1.09-0.27,1.42-0.59c0.33-0.32,0.5-0.74,0.5-1.28s-0.17-0.93-0.5-1.17c-0.33-0.24-0.8-0.33-1.42-0.25l-2.47,0.3V573z
				 M1840.38,578.31c0.34-0.33,0.52-0.78,0.52-1.33c0-0.55-0.18-0.96-0.54-1.23s-0.86-0.37-1.49-0.29l-2.73,0.33v3.47l2.78-0.34
				C1839.55,578.85,1840.04,578.65,1840.38,578.31z"/>
			<path fill="#EC2746" d="M1854.79,580.07l-3.22-5.54l-0.91,0.11v5.93l-3.77,0.46v-15.71l6.33-0.78c1.22-0.15,2.26-0.06,3.12,0.27
				s1.5,0.84,1.93,1.54c0.43,0.7,0.64,1.51,0.64,2.44c0,1.04-0.29,2.01-0.87,2.91c-0.58,0.89-1.44,1.58-2.57,2.06l3.57,5.78
				L1854.79,580.07z M1850.66,571.94l2.34-0.29c0.69-0.08,1.21-0.32,1.55-0.71c0.34-0.39,0.52-0.89,0.52-1.52
				c0-0.6-0.17-1.05-0.52-1.35c-0.35-0.3-0.86-0.41-1.55-0.32l-2.34,0.29V571.94z"/>
			<path fill="#EC2746" d="M1865.28,575.65l6.66-0.82v3.13L1861,579.3v-2.91l6.61-10.48l-6.61,0.81v-3.13l10.93-1.34v2.91
				L1865.28,575.65z"/>
			<path fill="#EC2746" d="M1887.68,560.32l-5.36,11.18v5.19l-3.77,0.46v-5.19l-5.36-9.86l4.28-0.53l3,6.21l2.98-6.95
				L1887.68,560.32z"/>
			<path fill="#EC2746" d="M1903.04,574.14l-3.77,0.46l-6.31-8.92v9.69l-3.77,0.46v-15.71l3.77-0.46l6.31,8.96v-9.73l3.77-0.46
				V574.14z M1898.68,555.82l-5.31,2.91v-2.64l5.31-3.25V555.82z"/>
			<path fill="#EC2746" d="M1908.33,573.09c-0.9-0.26-1.61-0.73-2.15-1.39c-0.54-0.67-0.82-1.51-0.85-2.54l4.01-0.49
				c0.06,0.57,0.26,0.99,0.6,1.26c0.34,0.27,0.78,0.36,1.32,0.3c0.56-0.07,1-0.25,1.32-0.55c0.32-0.3,0.49-0.68,0.49-1.14
				c0-0.39-0.13-0.69-0.39-0.91s-0.57-0.39-0.95-0.51s-0.91-0.24-1.6-0.36c-1-0.19-1.82-0.4-2.45-0.64
				c-0.63-0.24-1.18-0.63-1.63-1.19c-0.46-0.56-0.68-1.33-0.68-2.31c0-1.46,0.52-2.67,1.56-3.63c1.04-0.96,2.4-1.54,4.08-1.74
				c1.71-0.21,3.08,0.04,4.12,0.74c1.04,0.7,1.6,1.78,1.67,3.25l-4.08,0.5c-0.03-0.5-0.21-0.88-0.55-1.13
				c-0.34-0.25-0.77-0.34-1.3-0.28c-0.46,0.06-0.82,0.22-1.1,0.5c-0.28,0.28-0.42,0.65-0.42,1.11c0,0.51,0.24,0.87,0.71,1.1
				c0.47,0.23,1.2,0.44,2.2,0.65c1,0.22,1.81,0.45,2.44,0.69c0.62,0.24,1.17,0.63,1.62,1.17c0.46,0.54,0.68,1.28,0.68,2.22
				c0,0.9-0.22,1.74-0.67,2.52c-0.45,0.79-1.1,1.45-1.95,1.98s-1.86,0.88-3.02,1.02C1910.24,573.42,1909.23,573.35,1908.33,573.09z"
				/>
			<path fill="#EC2746" d="M1928.3,571.04l-5.2-6.3v6.94l-3.77,0.46v-15.71l3.77-0.46v6.89l5.16-7.53l4.43-0.54l-6,8.43l6.22,7.25
				L1928.3,571.04z"/>
			<path fill="#EC2746" d="M1938.47,554.08v15.71l-3.77,0.46v-15.71L1938.47,554.08z"/>
		</g>
		<g>
			<path fill="#EC2746" d="M2034.5,631.21l-3.83-6.59l-1.08,0.13v7.06l-4.49,0.55v-18.71l7.54-0.92c1.45-0.18,2.69-0.07,3.71,0.32
				c1.02,0.39,1.79,1,2.3,1.84s0.76,1.8,0.76,2.91c0,1.24-0.35,2.4-1.04,3.46c-0.69,1.06-1.71,1.88-3.06,2.46l4.25,6.89
				L2034.5,631.21z M2029.59,621.53l2.78-0.34c0.82-0.1,1.44-0.38,1.85-0.84c0.41-0.46,0.62-1.06,0.62-1.81
				c0-0.71-0.21-1.24-0.62-1.6c-0.41-0.36-1.03-0.49-1.85-0.38l-2.78,0.34V621.53z"/>
			<path fill="#EC2746" d="M2058.03,609.61l-6.38,13.31v6.18l-4.49,0.55v-6.18l-6.38-11.74l5.09-0.62l3.57,7.4l3.54-8.27
				L2058.03,609.61z"/>
			<path fill="#EC2746" d="M2073.15,616.75c-0.49,0.96-1.24,1.77-2.26,2.45c-1.01,0.67-2.28,1.11-3.78,1.29l-2.78,0.34v6.72
				l-4.49,0.55v-18.71l7.27-0.89c1.47-0.18,2.71-0.08,3.73,0.31c1.01,0.39,1.78,1.01,2.28,1.85c0.51,0.84,0.76,1.85,0.76,3.03
				C2073.89,614.77,2073.64,615.79,2073.15,616.75z M2068.69,616.06c0.42-0.46,0.63-1.06,0.63-1.81s-0.21-1.3-0.63-1.66
				s-1.06-0.48-1.92-0.38l-2.44,0.3v4.69l2.44-0.3C2067.63,616.8,2068.27,616.52,2068.69,616.06z"/>
			<path fill="#EC2746" d="M2080.72,606.83v18.71l-4.49,0.55v-18.71L2080.72,606.83z"/>
			<path fill="#EC2746" d="M2100.46,623.11l-4.49,0.55l-7.51-10.62v11.54l-4.49,0.55v-18.71l4.49-0.55l7.51,10.67v-11.59l4.49-0.55
				V623.11z M2095.26,601.28l-6.33,3.47v-3.15l6.33-3.87V601.28z"/>
			<path fill="#EC2746" d="M2106.77,621.86c-1.07-0.31-1.92-0.87-2.56-1.66c-0.64-0.79-0.98-1.8-1.01-3.02l4.78-0.59
				c0.07,0.68,0.31,1.18,0.71,1.5c0.4,0.32,0.93,0.43,1.58,0.35c0.67-0.08,1.19-0.3,1.58-0.66c0.38-0.36,0.58-0.81,0.58-1.36
				c0-0.46-0.15-0.82-0.46-1.09c-0.31-0.26-0.68-0.47-1.13-0.61c-0.45-0.14-1.08-0.28-1.9-0.43c-1.19-0.23-2.16-0.48-2.92-0.76
				c-0.75-0.28-1.4-0.75-1.94-1.41c-0.54-0.66-0.81-1.58-0.81-2.75c0-1.74,0.62-3.18,1.86-4.32s2.86-1.83,4.86-2.08
				c2.03-0.25,3.67,0.04,4.91,0.88c1.24,0.83,1.91,2.12,2,3.87l-4.86,0.6c-0.04-0.6-0.25-1.05-0.66-1.35
				c-0.4-0.3-0.92-0.41-1.55-0.33c-0.54,0.07-0.98,0.27-1.31,0.6c-0.33,0.33-0.5,0.78-0.5,1.33c0,0.6,0.28,1.04,0.84,1.31
				c0.56,0.27,1.43,0.53,2.62,0.77c1.19,0.26,2.16,0.54,2.9,0.82c0.74,0.28,1.39,0.75,1.93,1.39c0.54,0.64,0.81,1.53,0.81,2.65
				c0,1.07-0.27,2.07-0.8,3s-1.31,1.72-2.32,2.36c-1.01,0.64-2.21,1.04-3.6,1.21C2109.04,622.25,2107.83,622.17,2106.77,621.86z"/>
			<path fill="#EC2746" d="M2130.56,619.42l-6.2-7.5v8.26l-4.49,0.55v-18.71l4.49-0.55v8.21l6.15-8.96l5.28-0.65l-7.14,10.05
				l7.41,8.63L2130.56,619.42z"/>
			<path fill="#EC2746" d="M2142.66,599.22v18.71l-4.49,0.55v-18.71L2142.66,599.22z"/>
		</g>
		<g>
			<path fill="#EC2746" d="M1913.59,821.3l5.88-0.72v3.52l-10.37,1.27v-18.71l4.49-0.55V821.3z"/>
			<path fill="#EC2746" d="M1926.12,804.57v18.71l-4.49,0.55v-18.71L1926.12,804.57z"/>
			<path fill="#EC2746" d="M1942.68,811.53c-0.49,0.96-1.24,1.77-2.26,2.45c-1.02,0.67-2.28,1.11-3.78,1.29l-2.78,0.34v6.72
				l-4.49,0.55v-18.71l7.27-0.89c1.47-0.18,2.71-0.08,3.73,0.31c1.01,0.39,1.78,1.01,2.28,1.85c0.51,0.84,0.76,1.85,0.76,3.02
				C1943.42,809.55,1943.17,810.57,1942.68,811.53z M1938.22,810.84c0.42-0.46,0.63-1.06,0.63-1.81s-0.21-1.3-0.63-1.66
				c-0.42-0.36-1.06-0.48-1.92-0.38l-2.44,0.3v4.69l2.44-0.3C1937.16,811.58,1937.8,811.3,1938.22,810.84z"/>
			<path fill="#EC2746" d="M1962.25,818.84l-4.49,0.55l-7.51-10.62v11.54l-4.49,0.55v-18.71l4.49-0.55l7.51,10.67v-11.59l4.49-0.55
				V818.84z"/>
			<path fill="#EC2746" d="M1969.46,816.92c-1.44-0.64-2.59-1.64-3.44-3c-0.85-1.36-1.27-2.96-1.27-4.79c0-1.83,0.42-3.53,1.27-5.09
				c0.85-1.56,2-2.84,3.44-3.83c1.44-1,3.03-1.6,4.77-1.81c1.73-0.21,3.32,0,4.77,0.64c1.44,0.64,2.58,1.64,3.41,2.99
				c0.83,1.36,1.25,2.95,1.25,4.78s-0.42,3.53-1.26,5.1c-0.84,1.57-1.98,2.85-3.41,3.84c-1.44,0.99-3.02,1.6-4.75,1.81
				C1972.49,817.77,1970.9,817.56,1969.46,816.92z M1977.75,811.47c0.88-1.1,1.33-2.47,1.33-4.11c0-1.65-0.44-2.92-1.33-3.79
				c-0.88-0.88-2.06-1.23-3.53-1.05c-1.49,0.18-2.67,0.82-3.56,1.9s-1.33,2.46-1.33,4.13c0,1.65,0.44,2.92,1.33,3.8
				c0.88,0.88,2.07,1.22,3.56,1.04C1975.69,813.22,1976.87,812.58,1977.75,811.47z"/>
			<path fill="#EC2746" d="M2011.51,794.08l-4.81,19.3l-5.44,0.67l-2.94-11.95l-3.04,12.69l-5.44,0.67l-4.67-18.14l4.81-0.59
				l2.65,13.29l3.28-14.02l4.94-0.61l3.15,13.23l2.68-13.95L2011.51,794.08z"/>
			<path fill="#EC2746" d="M2016.81,811.66c-1.07-0.31-1.92-0.87-2.56-1.66c-0.64-0.79-0.98-1.8-1.01-3.02l4.78-0.59
				c0.07,0.68,0.31,1.18,0.71,1.5c0.4,0.32,0.93,0.43,1.58,0.35c0.67-0.08,1.19-0.3,1.58-0.66c0.38-0.36,0.58-0.81,0.58-1.36
				c0-0.46-0.15-0.83-0.46-1.09c-0.31-0.26-0.68-0.47-1.13-0.61s-1.08-0.28-1.9-0.43c-1.19-0.23-2.16-0.48-2.92-0.76
				c-0.75-0.28-1.4-0.75-1.94-1.41c-0.54-0.66-0.81-1.58-0.81-2.75c0-1.74,0.62-3.18,1.87-4.32c1.24-1.14,2.86-1.83,4.86-2.08
				c2.03-0.25,3.67,0.04,4.91,0.88c1.24,0.83,1.91,2.12,2,3.87l-4.86,0.6c-0.04-0.6-0.25-1.05-0.66-1.35
				c-0.4-0.3-0.92-0.41-1.55-0.33c-0.54,0.07-0.98,0.27-1.31,0.6c-0.33,0.33-0.5,0.78-0.5,1.33c0,0.6,0.28,1.04,0.84,1.31
				c0.56,0.27,1.43,0.53,2.63,0.77c1.19,0.26,2.16,0.54,2.9,0.82c0.74,0.28,1.39,0.75,1.93,1.39c0.54,0.64,0.81,1.53,0.81,2.65
				c0,1.07-0.27,2.07-0.8,3c-0.53,0.94-1.31,1.72-2.32,2.37c-1.02,0.64-2.21,1.04-3.6,1.21
				C2019.09,812.05,2017.88,811.98,2016.81,811.66z"/>
			<path fill="#EC2746" d="M2040.61,809.22l-6.2-7.5v8.26l-4.49,0.55v-18.71l4.49-0.55v8.21l6.15-8.96l5.28-0.65l-7.14,10.05
				l7.41,8.63L2040.61,809.22z"/>
			<path fill="#EC2746" d="M2052.71,789.02v18.71l-4.49,0.55v-18.71L2052.71,789.02z"/>
		</g>
		<g>
			<path fill="#EC2746" d="M1797.17,1110.61l-4.81,19.3l-5.44,0.67l-2.94-11.95l-3.05,12.69l-5.44,0.67l-4.67-18.14l4.81-0.59
				l2.65,13.29l3.28-14.02l4.94-0.61l3.15,13.23l2.68-13.95L1797.17,1110.61z"/>
			<path fill="#EC2746" d="M1810.14,1124.27v3.46l-10.37,1.27v-7.25l-1.71,0.72v-3.84l1.71-0.72v-7.62l4.49-0.55v6.26l2.18-0.93
				v3.84l-2.18,0.93v5.14L1810.14,1124.27z"/>
			<path fill="#EC2746" d="M1816.12,1125.96c-1.44-0.64-2.59-1.64-3.44-3c-0.85-1.36-1.27-2.96-1.27-4.79
				c0-1.83,0.42-3.53,1.27-5.09c0.85-1.56,2-2.84,3.44-3.83s3.03-1.6,4.77-1.81s3.32,0,4.77,0.64c1.44,0.64,2.58,1.64,3.41,2.99
				c0.83,1.36,1.25,2.95,1.25,4.78s-0.42,3.53-1.26,5.1c-0.84,1.57-1.98,2.85-3.41,3.84c-1.44,0.99-3.02,1.6-4.75,1.81
				C1819.15,1126.81,1817.56,1126.6,1816.12,1125.96z M1824.41,1120.52c0.88-1.1,1.33-2.47,1.33-4.11c0-1.65-0.44-2.92-1.33-3.79
				c-0.88-0.88-2.06-1.23-3.53-1.05c-1.49,0.18-2.67,0.82-3.56,1.9c-0.88,1.09-1.33,2.46-1.33,4.13c0,1.65,0.44,2.92,1.33,3.79
				c0.88,0.88,2.07,1.22,3.56,1.04C1822.35,1122.26,1823.53,1121.62,1824.41,1120.52z"/>
			<path fill="#EC2746" d="M1833.22,1110.57c0.79-1.54,1.89-2.81,3.3-3.79c1.41-0.98,3.01-1.58,4.79-1.8
				c2.19-0.27,4.06,0.09,5.62,1.07c1.56,0.98,2.6,2.45,3.12,4.41l-4.94,0.61c-0.37-0.74-0.89-1.27-1.56-1.59
				c-0.67-0.33-1.44-0.44-2.3-0.33c-1.38,0.17-2.5,0.8-3.36,1.88c-0.86,1.08-1.29,2.44-1.29,4.08c0,1.64,0.43,2.89,1.29,3.76
				c0.86,0.87,1.98,1.22,3.36,1.05c0.86-0.11,1.62-0.4,2.3-0.9c0.67-0.49,1.19-1.15,1.56-1.98l4.94-0.61
				c-0.53,2.09-1.57,3.81-3.12,5.17c-1.56,1.36-3.43,2.17-5.62,2.44c-1.79,0.22-3.38,0.01-4.79-0.62c-1.41-0.63-2.51-1.62-3.3-2.97
				c-0.79-1.34-1.18-2.94-1.18-4.79C1832.04,1113.81,1832.43,1112.12,1833.22,1110.57z"/>
			<path fill="#EC2746" d="M1863.53,1117.71v3.46l-10.37,1.27v-7.25l-1.71,0.72v-3.84l1.71-0.72v-7.62l4.49-0.55v6.26l2.18-0.93
				v3.84l-2.18,0.93v5.14L1863.53,1117.71z"/>
			<path fill="#EC2746" d="M1877.02,1116.22l-6.88,0.84l-1.1,3.44l-4.7,0.58l6.67-19.53l5.2-0.64l6.67,17.89l-4.75,0.58
				L1877.02,1116.22z M1875.87,1112.84l-2.28-6.57l-2.26,7.13L1875.87,1112.84z"/>
			<path fill="#EC2746" d="M1910.27,1096.73l-4.81,19.3l-5.44,0.67l-2.94-11.95l-3.04,12.69l-5.44,0.67l-4.67-18.14l4.81-0.59
				l2.65,13.29l3.28-14.02l4.94-0.61l3.15,13.23l2.68-13.95L1910.27,1096.73z"/>
			<path fill="#EC2746" d="M1915.57,1114.31c-1.07-0.31-1.92-0.87-2.56-1.66c-0.64-0.79-0.98-1.8-1.01-3.02l4.78-0.59
				c0.07,0.68,0.3,1.18,0.71,1.5c0.4,0.31,0.93,0.43,1.58,0.35c0.67-0.08,1.19-0.3,1.58-0.66c0.38-0.36,0.58-0.81,0.58-1.36
				c0-0.46-0.15-0.83-0.46-1.09s-0.68-0.47-1.13-0.61c-0.45-0.14-1.08-0.28-1.9-0.43c-1.19-0.23-2.16-0.48-2.91-0.76
				c-0.75-0.28-1.4-0.75-1.94-1.41c-0.54-0.66-0.81-1.58-0.81-2.75c0-1.74,0.62-3.18,1.87-4.32c1.24-1.14,2.86-1.83,4.86-2.08
				c2.03-0.25,3.67,0.04,4.91,0.88c1.24,0.83,1.91,2.12,2,3.87l-4.86,0.6c-0.04-0.6-0.25-1.05-0.66-1.35
				c-0.4-0.3-0.92-0.41-1.55-0.33c-0.54,0.07-0.98,0.27-1.31,0.6c-0.33,0.33-0.5,0.78-0.5,1.33c0,0.6,0.28,1.04,0.84,1.31
				c0.56,0.27,1.43,0.53,2.63,0.77c1.19,0.26,2.16,0.54,2.9,0.82c0.75,0.28,1.39,0.75,1.93,1.39c0.54,0.64,0.81,1.53,0.81,2.65
				c0,1.07-0.27,2.07-0.8,3c-0.53,0.94-1.31,1.72-2.33,2.36c-1.01,0.64-2.21,1.04-3.6,1.21
				C1917.85,1114.7,1916.64,1114.62,1915.57,1114.31z"/>
			<path fill="#EC2746" d="M1939.36,1111.87l-6.2-7.5v8.26l-4.49,0.55v-18.71l4.49-0.55v8.21l6.14-8.96l5.28-0.65l-7.14,10.05
				l7.41,8.63L1939.36,1111.87z"/>
			<path fill="#EC2746" d="M1951.47,1091.67v18.71l-4.49,0.55v-18.71L1951.47,1091.67z"/>
		</g>
		<g>
			<path fill="#EC2746" d="M1582.08,1034.36l-3.86-6.65l-1.08,0.13v7.12l-4.53,0.56v-18.86l7.6-0.93c1.46-0.18,2.71-0.07,3.75,0.32
				c1.03,0.39,1.8,1.01,2.32,1.85c0.51,0.84,0.77,1.82,0.77,2.93c0,1.25-0.35,2.42-1.05,3.49c-0.7,1.07-1.72,1.9-3.08,2.47
				l4.29,6.94L1582.08,1034.36z M1577.13,1024.6l2.81-0.34c0.83-0.1,1.45-0.38,1.87-0.85s0.62-1.07,0.62-1.82
				c0-0.72-0.21-1.26-0.62-1.62c-0.41-0.36-1.04-0.49-1.87-0.39l-2.81,0.34V1024.6z"/>
			<path fill="#EC2746" d="M1601.43,1028.65l-6.93,0.85l-1.11,3.47l-4.74,0.58l6.72-19.69l5.24-0.64l6.72,18.04l-4.79,0.59
				L1601.43,1028.65z M1600.26,1025.25l-2.3-6.62l-2.28,7.19L1600.26,1025.25z"/>
			<path fill="#EC2746" d="M1621.47,1011.84c1.46,0.61,2.6,1.58,3.4,2.9c0.8,1.33,1.21,2.92,1.21,4.78c0,1.84-0.4,3.53-1.21,5.07
				c-0.8,1.53-1.94,2.78-3.42,3.75c-1.47,0.97-3.18,1.57-5.12,1.81l-6.96,0.85v-18.86l6.96-0.85
				C1618.29,1011.05,1620,1011.24,1621.47,1011.84z M1620.04,1024.3c0.95-1.07,1.43-2.47,1.43-4.21s-0.48-3.03-1.43-3.88
				c-0.95-0.85-2.29-1.17-4-0.96l-2.14,0.26v10.96l2.14-0.26C1617.75,1026,1619.08,1025.37,1620.04,1024.3z"/>
			<path fill="#EC2746" d="M1633.43,1024.29l7.99-0.98v3.76l-13.13,1.61v-3.49l7.94-12.58l-7.94,0.98v-3.76l13.13-1.61v3.49
				L1633.43,1024.29z"/>
			<path fill="#EC2746" d="M1648.92,1007.29v18.86l-4.53,0.56v-18.86L1648.92,1007.29z"/>
			<path fill="#EC2746" d="M1656.72,1010.01v3.82l6.06-0.74v3.55l-6.06,0.74v4.14l6.86-0.84v3.68l-11.38,1.4v-18.86l11.38-1.4v3.68
				L1656.72,1010.01z"/>
			<path fill="#EC2746" d="M1677.9,1011.26v3.82l-11.65,1.43v-3.82L1677.9,1011.26z"/>
			<path fill="#EC2746" d="M1584.25,1047.47v12.84c0,1.99-0.55,3.59-1.66,4.8c-1.1,1.21-2.59,1.93-4.46,2.16
				c-1.96,0.24-3.53-0.13-4.71-1.12c-1.18-0.98-1.77-2.51-1.77-4.59l4.5-0.55c0,0.79,0.16,1.36,0.48,1.73
				c0.32,0.36,0.78,0.51,1.38,0.44c0.55-0.07,0.97-0.3,1.27-0.69c0.3-0.4,0.45-0.93,0.45-1.61v-12.84L1584.25,1047.47z"/>
			<path fill="#EC2746" d="M1591.89,1064.35c-1.46-0.64-2.61-1.65-3.47-3.03c-0.86-1.37-1.28-2.98-1.28-4.83s0.43-3.55,1.28-5.13
				c0.86-1.57,2.01-2.86,3.47-3.87c1.46-1,3.06-1.61,4.8-1.83s3.35,0,4.8,0.65c1.46,0.65,2.6,1.65,3.44,3.02
				c0.84,1.37,1.26,2.97,1.26,4.82c0,1.84-0.42,3.56-1.27,5.14c-0.85,1.58-1.99,2.87-3.44,3.88c-1.45,1-3.04,1.61-4.79,1.82
				C1594.94,1065.21,1593.34,1065,1591.89,1064.35z M1600.25,1058.86c0.89-1.11,1.34-2.49,1.34-4.14c0-1.67-0.45-2.94-1.34-3.83
				c-0.89-0.88-2.08-1.24-3.56-1.05c-1.5,0.18-2.7,0.82-3.59,1.92c-0.89,1.09-1.34,2.48-1.34,4.17c0,1.67,0.45,2.94,1.34,3.83
				c0.89,0.88,2.09,1.24,3.59,1.05C1598.17,1060.62,1599.36,1059.98,1600.25,1058.86z"/>
			<path fill="#EC2746" d="M1634.28,1041.33l-4.84,19.46l-5.48,0.67l-2.96-12.05l-3.07,12.79l-5.48,0.67l-4.71-18.28l4.84-0.59
				l2.67,13.4l3.31-14.14l4.98-0.61l3.18,13.34l2.7-14.06L1634.28,1041.33z"/>
			<path fill="#EC2746" d="M1639.62,1059.05c-1.08-0.32-1.94-0.87-2.58-1.67s-0.98-1.81-1.02-3.05l4.82-0.59
				c0.07,0.69,0.31,1.19,0.71,1.51c0.41,0.32,0.94,0.44,1.59,0.36c0.67-0.08,1.2-0.3,1.59-0.67c0.39-0.36,0.58-0.82,0.58-1.38
				c0-0.46-0.15-0.83-0.46-1.1c-0.31-0.27-0.69-0.47-1.14-0.61c-0.45-0.14-1.09-0.29-1.92-0.44c-1.2-0.23-2.18-0.48-2.94-0.77
				c-0.76-0.28-1.41-0.76-1.96-1.43c-0.55-0.67-0.82-1.59-0.82-2.77c0-1.76,0.63-3.21,1.88-4.36c1.25-1.15,2.88-1.85,4.9-2.09
				c2.05-0.25,3.7,0.04,4.95,0.88c1.25,0.84,1.92,2.14,2.01,3.9l-4.9,0.6c-0.04-0.6-0.26-1.06-0.66-1.36
				c-0.41-0.3-0.93-0.41-1.56-0.33c-0.55,0.07-0.99,0.27-1.32,0.61c-0.33,0.34-0.5,0.78-0.5,1.34c0,0.61,0.28,1.05,0.85,1.32
				c0.56,0.27,1.45,0.53,2.65,0.78c1.2,0.26,2.18,0.54,2.93,0.82c0.75,0.28,1.4,0.75,1.95,1.4c0.55,0.65,0.82,1.54,0.82,2.67
				c0,1.07-0.27,2.08-0.81,3.03c-0.54,0.94-1.32,1.74-2.34,2.38c-1.02,0.65-2.23,1.05-3.63,1.22
				C1641.92,1059.44,1640.7,1059.37,1639.62,1059.05z"/>
			<path fill="#EC2746" d="M1663.61,1056.59l-6.25-7.56v8.33l-4.53,0.56v-18.86l4.53-0.56v8.28l6.19-9.04l5.32-0.65l-7.2,10.13
				l7.46,8.7L1663.61,1056.59z"/>
			<path fill="#EC2746" d="M1675.81,1036.23v18.86l-4.53,0.56v-18.86L1675.81,1036.23z"/>
		</g>
		<g>
			<path fill="#EC2746" d="M1639.65,830.97l-6.88,0.84l-1.1,3.44l-4.7,0.58l6.67-19.53l5.2-0.64l6.67,17.89l-4.75,0.58
				L1639.65,830.97z M1638.49,827.59l-2.28-6.57l-2.26,7.13L1638.49,827.59z"/>
			<path fill="#EC2746" d="M1652.01,829.24l5.88-0.72v3.52l-10.37,1.27V814.6l4.49-0.55V829.24z"/>
			<path fill="#EC2746" d="M1664.54,816.16v3.78l6.01-0.74v3.52l-6.01,0.74v4.11l6.8-0.84v3.65l-11.29,1.39v-18.71l11.29-1.39v3.65
				L1664.54,816.16z"/>
			<path fill="#EC2746" d="M1684.94,828.71l-6.2-7.5v8.26l-4.49,0.55v-18.71l4.49-0.55v8.21l6.14-8.96l5.28-0.65l-7.14,10.05
				l7.41,8.63L1684.94,828.71z"/>
			<path fill="#EC2746" d="M1695.6,826.93c-1.07-0.31-1.92-0.87-2.56-1.66c-0.64-0.79-0.98-1.8-1.01-3.02l4.78-0.59
				c0.07,0.68,0.3,1.18,0.71,1.5c0.4,0.32,0.93,0.43,1.58,0.35c0.67-0.08,1.19-0.3,1.58-0.66c0.38-0.36,0.58-0.81,0.58-1.36
				c0-0.46-0.15-0.82-0.46-1.09s-0.68-0.47-1.13-0.61c-0.45-0.14-1.08-0.28-1.9-0.43c-1.19-0.23-2.16-0.48-2.91-0.76
				c-0.75-0.28-1.4-0.75-1.94-1.41c-0.54-0.66-0.81-1.58-0.81-2.75c0-1.74,0.62-3.18,1.87-4.32c1.24-1.14,2.86-1.83,4.86-2.08
				c2.03-0.25,3.67,0.04,4.91,0.88c1.24,0.83,1.91,2.12,2,3.87l-4.86,0.6c-0.04-0.6-0.25-1.05-0.66-1.35
				c-0.4-0.3-0.92-0.41-1.55-0.33c-0.54,0.07-0.98,0.27-1.31,0.6c-0.33,0.33-0.5,0.78-0.5,1.33c0,0.6,0.28,1.04,0.84,1.31
				c0.56,0.27,1.43,0.53,2.63,0.77c1.19,0.26,2.16,0.54,2.9,0.82c0.74,0.28,1.39,0.75,1.93,1.39c0.54,0.64,0.81,1.53,0.81,2.65
				c0,1.07-0.27,2.07-0.8,3c-0.53,0.94-1.31,1.72-2.33,2.36c-1.01,0.64-2.21,1.04-3.6,1.21
				C1697.88,827.31,1696.67,827.24,1695.6,826.93z"/>
			<path fill="#EC2746" d="M1720.18,821.08l-6.88,0.84l-1.1,3.44l-4.7,0.58l6.67-19.53l5.2-0.64l6.67,17.89l-4.75,0.58
				L1720.18,821.08z M1719.03,817.71l-2.29-6.57l-2.26,7.13L1719.03,817.71z"/>
			<path fill="#EC2746" d="M1744.55,821.4l-4.49,0.55l-7.51-10.62v11.54l-4.49,0.55v-18.71l4.49-0.55l7.51,10.67v-11.59l4.49-0.55
				V821.4z"/>
			<path fill="#EC2746" d="M1759.1,808.36v3.79l-11.55,1.42v-3.79L1759.1,808.36z"/>
			<path fill="#EC2746" d="M1640.17,848.66c1.45,0.6,2.58,1.56,3.37,2.88c0.8,1.31,1.19,2.9,1.19,4.74c0,1.83-0.4,3.51-1.19,5.02
				c-0.8,1.52-1.93,2.76-3.39,3.72c-1.46,0.96-3.16,1.56-5.08,1.8l-6.91,0.85v-18.71l6.91-0.85
				C1637.02,847.87,1638.72,848.06,1640.17,848.66z M1638.75,861.01c0.95-1.06,1.42-2.45,1.42-4.17s-0.47-3.01-1.42-3.85
				c-0.95-0.84-2.27-1.16-3.96-0.95l-2.13,0.26v10.88l2.13-0.26C1636.49,862.71,1637.81,862.07,1638.75,861.01z"/>
			<path fill="#EC2746" d="M1656.66,864.17l-3.83-6.59l-1.08,0.13v7.06l-4.49,0.55v-18.71l7.54-0.92c1.45-0.18,2.69-0.07,3.71,0.32
				c1.02,0.39,1.79,1,2.3,1.84c0.51,0.83,0.76,1.8,0.76,2.91c0,1.24-0.35,2.4-1.04,3.46c-0.69,1.06-1.71,1.88-3.06,2.45l4.25,6.89
				L1656.66,864.17z M1651.75,854.49l2.78-0.34c0.82-0.1,1.44-0.38,1.85-0.84c0.41-0.46,0.62-1.06,0.62-1.81
				c0-0.71-0.21-1.25-0.62-1.6c-0.41-0.36-1.03-0.49-1.85-0.39l-2.78,0.34V854.49z"/>
			<path fill="#EC2746" d="M1668.33,861.7c-1.44-0.64-2.59-1.64-3.44-3c-0.85-1.36-1.27-2.96-1.27-4.79s0.42-3.53,1.27-5.09
				c0.85-1.56,2-2.84,3.44-3.83c1.44-0.99,3.03-1.6,4.77-1.81s3.32,0,4.77,0.64s2.58,1.64,3.41,2.99c0.83,1.35,1.25,2.95,1.25,4.78
				c0,1.83-0.42,3.53-1.26,5.1s-1.98,2.85-3.41,3.84c-1.43,0.99-3.02,1.6-4.75,1.81S1669.78,862.34,1668.33,861.7z M1676.63,856.26
				c0.88-1.1,1.33-2.47,1.33-4.11c0-1.65-0.44-2.92-1.33-3.8s-2.06-1.23-3.53-1.05c-1.49,0.18-2.67,0.82-3.56,1.9
				c-0.88,1.09-1.33,2.46-1.33,4.13c0,1.65,0.44,2.92,1.33,3.79c0.88,0.88,2.07,1.23,3.56,1.04
				C1674.57,858,1675.75,857.36,1676.63,856.26z"/>
			<path fill="#EC2746" d="M1710.39,838.86l-4.81,19.3l-5.44,0.67l-2.94-11.95l-3.05,12.69l-5.44,0.67l-4.67-18.14l4.81-0.59
				l2.65,13.29l3.28-14.02l4.94-0.61l3.15,13.23l2.68-13.95L1710.39,838.86z"/>
			<path fill="#EC2746" d="M1715.69,856.45c-1.07-0.31-1.92-0.87-2.56-1.66c-0.64-0.79-0.98-1.8-1.01-3.02l4.78-0.59
				c0.07,0.68,0.31,1.18,0.71,1.5c0.4,0.32,0.93,0.43,1.58,0.35c0.67-0.08,1.19-0.3,1.58-0.66c0.38-0.36,0.58-0.81,0.58-1.36
				c0-0.46-0.15-0.83-0.46-1.09c-0.31-0.26-0.68-0.47-1.13-0.61c-0.45-0.14-1.08-0.28-1.9-0.43c-1.19-0.23-2.16-0.48-2.92-0.76
				c-0.75-0.28-1.4-0.75-1.94-1.41c-0.54-0.66-0.81-1.58-0.81-2.75c0-1.74,0.62-3.18,1.86-4.32s2.86-1.83,4.86-2.08
				c2.03-0.25,3.67,0.04,4.91,0.88s1.91,2.12,2,3.87l-4.86,0.6c-0.04-0.6-0.25-1.05-0.66-1.35c-0.4-0.3-0.92-0.41-1.55-0.33
				c-0.54,0.07-0.98,0.27-1.31,0.6c-0.33,0.33-0.5,0.78-0.5,1.33c0,0.6,0.28,1.04,0.84,1.31c0.56,0.27,1.43,0.53,2.62,0.77
				c1.19,0.26,2.16,0.54,2.9,0.82c0.74,0.28,1.39,0.75,1.93,1.39c0.54,0.64,0.81,1.53,0.81,2.65c0,1.07-0.27,2.07-0.8,3
				s-1.31,1.72-2.32,2.36c-1.01,0.64-2.21,1.04-3.6,1.21C1717.97,856.83,1716.76,856.76,1715.69,856.45z"/>
			<path fill="#EC2746" d="M1739.48,854l-6.2-7.5v8.26l-4.49,0.55V836.6l4.49-0.55v8.21l6.15-8.96l5.28-0.65l-7.14,10.05l7.41,8.63
				L1739.48,854z"/>
			<path fill="#EC2746" d="M1751.59,833.81v18.71l-4.49,0.55v-18.71L1751.59,833.81z"/>
		</g>
		<g>
			<path fill="#EC2746" d="M1543.06,552.27v3.65l-4.88,0.6v15.06l-4.49,0.55v-15.06l-4.88,0.6v-3.65L1543.06,552.27z"/>
			<path fill="#EC2746" d="M1549.27,569.18c-1.44-0.64-2.59-1.64-3.44-3c-0.85-1.36-1.27-2.96-1.27-4.79c0-1.83,0.42-3.53,1.27-5.09
				c0.85-1.56,2-2.84,3.44-3.83s3.03-1.6,4.77-1.81s3.32,0,4.77,0.64c1.44,0.64,2.58,1.64,3.41,2.99c0.83,1.36,1.25,2.95,1.25,4.78
				c0,1.83-0.42,3.53-1.26,5.1c-0.84,1.57-1.98,2.85-3.41,3.84c-1.44,0.99-3.02,1.6-4.75,1.81S1550.72,569.82,1549.27,569.18z
				 M1557.57,563.73c0.88-1.1,1.33-2.47,1.33-4.11c0-1.65-0.44-2.92-1.33-3.8s-2.06-1.23-3.53-1.05c-1.49,0.18-2.67,0.82-3.56,1.9
				c-0.88,1.09-1.33,2.46-1.33,4.13c0,1.65,0.44,2.92,1.33,3.8c0.88,0.88,2.07,1.22,3.56,1.04
				C1555.51,565.48,1556.69,564.84,1557.57,563.73z"/>
			<path fill="#EC2746" d="M1575.36,567.01l-3.83-6.59l-1.08,0.13v7.06l-4.49,0.55v-18.71l7.54-0.92c1.45-0.18,2.69-0.07,3.71,0.32
				c1.02,0.39,1.79,1,2.3,1.84s0.76,1.8,0.76,2.91c0,1.24-0.35,2.4-1.04,3.46c-0.69,1.06-1.71,1.88-3.06,2.46l4.25,6.89
				L1575.36,567.01z M1570.45,557.33l2.78-0.34c0.82-0.1,1.44-0.38,1.85-0.84c0.41-0.46,0.62-1.06,0.62-1.81
				c0-0.71-0.21-1.24-0.62-1.6c-0.41-0.36-1.03-0.49-1.85-0.39l-2.78,0.34V557.33z"/>
			<path fill="#EC2746" d="M1587.49,546.81v11.2c0,1.12,0.27,1.95,0.81,2.49c0.54,0.54,1.34,0.74,2.39,0.61
				c1.05-0.13,1.86-0.53,2.42-1.2c0.56-0.67,0.84-1.57,0.84-2.69v-11.2l4.49-0.55v11.17c0,1.67-0.35,3.13-1.05,4.37
				c-0.7,1.24-1.64,2.23-2.82,2.96c-1.18,0.73-2.5,1.19-3.95,1.36c-1.45,0.18-2.75,0.05-3.9-0.39s-2.05-1.2-2.72-2.28
				c-0.67-1.08-1-2.46-1-4.13v-11.17L1587.49,546.81z"/>
			<path fill="#EC2746" d="M1618.08,561.77l-4.49,0.55l-7.51-10.62v11.54l-4.49,0.55v-18.71l4.49-0.55l7.51,10.67v-11.59l4.49-0.55
				V561.77z M1612.89,539.94l-6.33,3.47v-3.14l6.33-3.87V539.94z"/>
			<path fill="#EC2746" d="M1624.39,560.51c-1.07-0.31-1.92-0.87-2.56-1.66c-0.64-0.79-0.98-1.8-1.01-3.02l4.78-0.59
				c0.07,0.68,0.31,1.19,0.71,1.5c0.4,0.32,0.93,0.43,1.58,0.35c0.67-0.08,1.19-0.3,1.58-0.66c0.38-0.36,0.58-0.81,0.58-1.36
				c0-0.46-0.15-0.83-0.46-1.09c-0.31-0.26-0.68-0.47-1.13-0.61c-0.45-0.14-1.08-0.28-1.9-0.43c-1.19-0.23-2.16-0.48-2.92-0.76
				c-0.75-0.28-1.4-0.75-1.94-1.42c-0.54-0.66-0.81-1.58-0.81-2.75c0-1.74,0.62-3.18,1.87-4.32c1.24-1.14,2.86-1.83,4.86-2.08
				c2.03-0.25,3.67,0.04,4.91,0.88c1.24,0.83,1.91,2.12,2,3.87l-4.86,0.6c-0.04-0.6-0.25-1.05-0.66-1.35
				c-0.4-0.3-0.92-0.41-1.55-0.33c-0.54,0.07-0.98,0.27-1.31,0.6c-0.33,0.33-0.5,0.78-0.5,1.33c0,0.6,0.28,1.04,0.84,1.31
				c0.56,0.27,1.43,0.53,2.63,0.77c1.19,0.26,2.16,0.54,2.9,0.82c0.74,0.28,1.39,0.75,1.93,1.39c0.54,0.64,0.81,1.53,0.81,2.65
				c0,1.07-0.27,2.07-0.8,3s-1.31,1.72-2.32,2.36c-1.02,0.64-2.21,1.04-3.6,1.21C1626.66,560.9,1625.46,560.83,1624.39,560.51z"/>
			<path fill="#EC2746" d="M1648.18,558.07l-6.2-7.5v8.26l-4.49,0.55v-18.71l4.49-0.55v8.21l6.15-8.96l5.28-0.65l-7.14,10.05
				l7.41,8.63L1648.18,558.07z"/>
			<path fill="#EC2746" d="M1660.28,537.87v18.71l-4.49,0.55v-18.71L1660.28,537.87z"/>
		</g>
	</g>
	<g>
		<g>
			<polygon fill="none" stroke="#EC2746" stroke-width="9" stroke-miterlimit="10" points="1973,230 1926,241 1901,297 1781,333 
				1747.79,289.5 1698,308 1622,271 1622,242.8 1660.55,235.79 1716.43,157.3 1719.09,81.47 1957.21,97.44 1967.86,181.25 
				1984.85,227 			"/>
			<polygon fill="none" stroke="#EC2746" stroke-width="9" stroke-miterlimit="10" points="1472.98,484.56 1537,474 1632,427 
				1691,412 1699.32,349 1679,321 1698,308 1622,271 1622,242.8 1558.12,254.41 1474.31,319.68 1442.38,404.74 			"/>
			<polygon fill="none" stroke="#EC2746" stroke-width="9" stroke-miterlimit="10" points="1474.31,584.33 1399.81,585.66 
				1370.54,547.08 1472.98,484.56 1537,474 1632,427 1691,412 1730,420 1699.32,498.83 1738,535 1745,582 1769,590 1810,633 
				1825.27,670.4 1868,648 1908.9,678.47 1853,690 1880,762 1863,793 1791,808 1744,739 1684,715 1669,748 1634,752 1616,779 
				1582,789 1556,722 1493,696 1481,624 			"/>
			<polygon fill="none" stroke="#EC2746" stroke-width="9" stroke-miterlimit="10" points="1916,689 1967,647 1945.26,610 
				1984.85,552.06 1950.42,511.43 1995,468 1940,425 1897,473 1853.3,484.56 1838,453 1793,474 1734,474 1714.28,460.38 
				1699.32,498.83 1738,535 1745,582 1769,590 1810,633 1825.27,670.4 1868,648 1908.9,678.47 			"/>
			<polygon fill="none" stroke="#EC2746" stroke-width="9" stroke-miterlimit="10" points="1901,297 1893,314 1927,336 1913,403 
				1927,439.51 1897,473 1853.3,484.56 1838,453 1793,474 1734,474 1714.28,460.38 1730,420 1691,412 1699.32,349 1679,321 
				1698,308 1747.79,289.5 1781,333 			"/>
			<polygon fill="none" stroke="#EC2746" stroke-width="9" stroke-miterlimit="10" points="1967,647 1995,651.15 2017,697 
				2108.3,721.4 2228.54,676.12 2212.24,549.97 2106.37,549.97 2032,532 2040.07,484.56 1995,468 1950.42,511.43 1984.85,552.06 
				1945.26,610 			"/>
			<polygon fill="none" stroke="#EC2746" stroke-width="9" stroke-miterlimit="10" points="1984.85,227 2002.44,274.37 2053,258.4 
				2163.41,327.58 2230.58,309.07 2280,512.49 2212.24,549.97 2106.37,549.97 2032,532 2040.07,484.56 1995,468 1940,425 
				1927,439.51 1913,403 1927,336 1893,314 1926,241 			"/>
			<polygon fill="none" stroke="#EC2746" stroke-width="9" stroke-miterlimit="10" points="1496.92,1149.71 1554.13,1123.11 
				1649.91,1180.31 1699.32,1127.35 1699.32,1058.2 1747,982 1667,912 1554,921.67 1540.82,1043.29 1480.96,1097.83 			"/>
			<polygon fill="none" stroke="#EC2746" stroke-width="9" stroke-miterlimit="10" points="1706.83,1275.48 1802.9,1234.85 
				1961.57,1271.43 2010.43,1200.27 2087.58,1024.66 2067.63,1004.71 1971,985 1940.98,912 1897.21,884.97 1847.16,921.33 
				1803.42,856.46 1747,889 1773,986 1747,982 1699.32,1058.2 1699.32,1127.35 1649.91,1180.31 			"/>
			<polygon fill="none" stroke="#EC2746" stroke-width="9" stroke-miterlimit="10" points="1916,689 1967,647 1995,651.15 2017,697 
				2108.3,721.4 2126.64,775.56 2094.04,815.14 2136.81,908.93 2067.63,1004.71 1971,985 1940.98,912 1897.21,884.97 
				1847.16,921.33 1803.42,856.46 1791,808 1863,793 1880,762 1853,690 1908.9,678.47 			"/>
			<polygon fill="none" stroke="#EC2746" stroke-width="9" stroke-miterlimit="10" points="1582,789 1604,848 1614,873 1558,884 
				1554,921.67 1667,912 1747,982 1773,986 1747,889 1803.42,856.46 1791,808 1744,739 1684,715 1669,748 1634,752 1616,779 			"/>
		</g>
		<polygon fill="none" stroke="#EC2746" stroke-width="9" stroke-miterlimit="10" points="1540,655.16 1593.79,613 1663.08,619.54 
			1688.28,642.07 1657.75,691.5 1596.23,691.5 1590.88,660.97 		"/>
		<polygon fill="none" stroke="#EC2746" stroke-width="9" stroke-miterlimit="10" points="1872,974 1860.84,963.25 1839,942.22 
			1823.04,937 1817.69,955.5 1851,985 1839,1013 1855,1020 1919.99,985.31 1910,950 		"/>
		<polygon fill="none" stroke="#EC2746" stroke-width="9" stroke-miterlimit="10" points="1716.43,157.3 1766.74,177.15 
			1737.17,220.79 1749.5,252.72 1699.32,260.89 1660.55,235.79 		"/>
	</g>
</g>
</svg>
